<?xml version="1.0" standalone="no"?>
<!DOCTYPE svg PUBLIC "-//W3C//DTD SVG 1.1//EN" "http://www.w3.org/Graphics/SVG/1.1/DTD/svg11.dtd" >
<svg xmlns="http://www.w3.org/2000/svg" xmlns:xlink="http://www.w3.org/1999/xlink" version="1.1">
<metadata></metadata>
<defs>
<font id="open_sauce_oneregular" horiz-adv-x="1310" >
<font-face units-per-em="2048" ascent="1638" descent="-410" />
<missing-glyph horiz-adv-x="573" />
<glyph unicode="&#xfb01;" horiz-adv-x="1187" d="M53 979v154h189v122q0 152 73.5 230t219.5 78h145v-154h-107q-82 0 -119.5 -43t-37.5 -133v-100h264v-154h-264v-979h-174v979h-189zM823 1456q0 53 39 90t94 37t94 -37t39 -90t-38.5 -91t-94.5 -38q-55 0 -94 38t-39 91zM868 0v1133h174v-1133h-174z" />
<glyph unicode="&#xfb02;" horiz-adv-x="1290" d="M53 979v154h189v122q0 152 73.5 230t219.5 78h145v-154h-107q-82 0 -119.5 -43t-37.5 -133v-100h264v-154h-264v-979h-174v979h-189zM864 285v1278h174v-1252q0 -59 8.5 -91t37 -49t90.5 -17h55v-154h-96q-137 0 -203 61.5t-66 223.5z" />
<glyph horiz-adv-x="0" />
<glyph horiz-adv-x="682" />
<glyph unicode=" "  horiz-adv-x="573" />
<glyph unicode="&#x09;" horiz-adv-x="573" />
<glyph unicode="&#xa0;" horiz-adv-x="573" />
<glyph unicode="!" horiz-adv-x="518" d="M137 102q0 49 36 84t87 35q47 0 83 -34.5t36 -84.5q0 -51 -35 -86.5t-84 -35.5q-51 0 -87 35.5t-36 86.5zM172 993v570h174v-570q0 -199 -8 -436q-4 -74 -4 -111h-150q0 37 -4 111q-8 238 -8 436z" />
<glyph unicode="&#x22;" horiz-adv-x="727" d="M94 1044v519h174v-519h-174zM457 1044v519h174v-519h-174z" />
<glyph unicode="#" horiz-adv-x="1538" d="M106 471v123h300l79 403h-284v127h313l96 439h138l-97 -445h371l92 445h137l-96 -445h277v-121h-304l-86 -403h295v-123h-319l-98 -471h-138l101 471h-373l-94 -471h-137l100 471h-273zM543 594h368l80 403h-368z" />
<glyph unicode="$" d="M55 473h191q31 -154 135 -229.5t250 -91.5v585l-8 2q-164 35 -264.5 71t-170 118t-69.5 225q0 131 64.5 228.5t180 149.5t267.5 52v184h86v-188q186 -23 317 -133.5t164 -312.5h-182q-27 125 -106 191.5t-193 84.5v-518q170 -37 275.5 -77t178 -130t72.5 -248 q0 -207 -136 -329.5t-390 -126.5v-185h-86v187q-227 14 -384 137t-192 354zM307 1169q0 -114 82 -168.5t242 -91.5v506h-2q-156 0 -239 -65.5t-83 -180.5zM717 147q162 4 250 73t88 204q0 131 -87 193.5t-251 101.5v-572z" />
<glyph unicode="%" horiz-adv-x="1613" d="M106 1227q0 96 37 177t106.5 130t162.5 49q86 0 155.5 -47t109.5 -129t40 -180q0 -100 -39 -182t-107.5 -129.5t-152.5 -47.5q-94 0 -165 49.5t-109 131t-38 178.5zM248 1227q0 -92 44 -153.5t126 -61.5q69 0 114.5 61.5t45.5 153.5q0 90 -46.5 153.5t-119.5 63.5 q-78 0 -121 -62.5t-43 -154.5zM266 0l912 1563h168l-912 -1563h-168zM897 336q0 96 37 178t106.5 130t161.5 48q86 0 155.5 -47t109.5 -129t40 -182t-38.5 -181t-107.5 -127t-153 -46q-94 0 -164.5 48t-108.5 130t-38 178zM1040 336q0 -94 43 -155.5t125 -61.5 q70 0 115 61.5t45 153.5t-45 154.5t-121 62.5q-78 0 -120 -61.5t-42 -153.5z" />
<glyph unicode="&#x26;" horiz-adv-x="1488" d="M115 367q0 150 93 256t271 206q-102 106 -145 187.5t-43 179.5q0 123 55 210t149.5 132t211.5 45q109 0 197.5 -43t141 -124t52.5 -189q0 -139 -94.5 -244.5t-253.5 -181.5l331 -408q57 88 82 178.5t39 198.5h172q-37 -315 -182 -512l209 -258h-227l-115 143 q-59 -78 -187.5 -120.5t-263.5 -42.5q-137 0 -249.5 45t-178 133t-65.5 209zM289 377q0 -113 90 -178.5t231 -65.5q99 0 192 35t163 94l-371 455q-100 -55 -161.5 -99.5t-102.5 -104.5t-41 -136zM465 1200q0 -74 38 -134t126 -161q100 58 159.5 100t97.5 99t38 135 q0 74 -62.5 132.5t-154.5 58.5q-102 0 -172 -62.5t-70 -167.5z" />
<glyph unicode="'" horiz-adv-x="362" d="M94 1044v519h174v-519h-174z" />
<glyph unicode="(" horiz-adv-x="608" d="M119 778q0 295 62.5 542t183.5 466h194q-139 -244 -202.5 -485.5t-63.5 -522.5q0 -276 64.5 -522t199.5 -483h-192q-246 442 -246 1005z" />
<glyph unicode=")" horiz-adv-x="608" d="M49 1786h195q121 -219 183 -466t62 -542q0 -563 -245 -1005h-193q135 238 199.5 483.5t64.5 521.5q0 281 -63.5 522.5t-202.5 485.5z" />
<glyph unicode="*" horiz-adv-x="849" d="M76 1251l57 160q76 -37 127 -65.5t115 -79.5l22 16q-37 139 -55 281h168q-18 -145 -61 -281l22 -16q68 51 119 78.5t131 66.5l53 -162q-115 -18 -221 -18q-49 0 -78 2l-8 -27q76 -53 121 -97t106 -112l-141 -96q-74 156 -115 285h-28q-27 -82 -51.5 -140.5t-65.5 -144.5 l-135 96q49 57 98 104.5t125 104.5l-8 27q-29 -2 -76 -2q-94 0 -221 20z" />
<glyph unicode="+" d="M86 618v146h496v496h145v-496h496v-146h-496v-495h-145v495h-496z" />
<glyph unicode="," horiz-adv-x="471" d="M88 96q0 55 36 90t95 35q80 0 128 -65.5t48 -171.5q0 -125 -74.5 -221.5t-224.5 -112.5v92q94 14 145.5 73.5t51.5 147.5q0 31 -6 62q-27 -45 -92 -45q-45 0 -76 31.5t-31 84.5z" />
<glyph unicode="-" horiz-adv-x="704" d="M49 608v152h606v-152h-606z" />
<glyph unicode="." horiz-adv-x="471" d="M115 102q0 49 36.5 84t88.5 35q47 0 81.5 -35.5t34.5 -83.5q0 -51 -34.5 -86.5t-81.5 -35.5q-52 0 -88.5 35.5t-36.5 86.5z" />
<glyph unicode="/" horiz-adv-x="929" d="M-6 -227l708 1790h162l-708 -1790h-162z" />
<glyph unicode="0" d="M119 784q0 395 140 597t392 202q258 0 399.5 -203.5t141.5 -603.5q0 -393 -139.5 -593.5t-390.5 -200.5q-259 0 -401 202.5t-142 599.5zM307 782q0 -315 91 -472.5t259 -157.5q164 0 255.5 156.5t91.5 469.5q0 317 -94.5 476t-260.5 159q-164 0 -253 -157.5t-89 -473.5z " />
<glyph unicode="1" d="M264 1040v185q143 29 265 129t188 209h184v-1563h-188v1323q-84 -106 -199 -178t-250 -105z" />
<glyph unicode="2" d="M111 0v168l499 414q168 139 250 261t82 269q0 141 -73.5 220t-215.5 79q-154 0 -239.5 -93t-98.5 -278h-188q10 248 149.5 393.5t374.5 145.5q143 0 252 -55.5t168 -157.5t59 -240q0 -188 -106 -346.5t-297 -318.5l-350 -291h829v-170h-1095z" />
<glyph unicode="3" d="M96 471h189q16 -154 112.5 -236.5t278.5 -82.5q154 0 246 80.5t92 220.5q0 154 -113 221t-289 67h-96v170h92q129 0 220.5 65.5t91.5 194.5q0 111 -74 175.5t-197 64.5q-135 0 -219 -78t-98 -225h-189q6 135 74 243.5t179.5 169t244.5 60.5q139 0 245.5 -52t164 -144.5 t57.5 -208.5q0 -84 -35 -156t-91 -119t-118 -59q88 -14 165 -63.5t125 -134.5t48 -198q0 -133 -68.5 -239.5t-189.5 -165.5t-270 -59q-258 0 -411.5 132t-166.5 357z" />
<glyph unicode="4" d="M82 373v186l723 1004h190v-1020h238v-170h-238v-373h-188v373h-725zM266 543h541v762z" />
<glyph unicode="5" d="M125 449h190q20 -139 114.5 -218t232.5 -79q158 0 248.5 108.5t90.5 276.5q0 162 -94 258t-250 96q-98 0 -181 -51.5t-128 -139.5h-207l156 863h819v-170h-678l-84 -475q72 70 159 106.5t181 36.5q143 0 256 -66.5t176.5 -184.5t63.5 -269q0 -158 -69.5 -285 t-193.5 -200.5t-280 -73.5q-141 0 -254.5 58t-183.5 164.5t-84 244.5z" />
<glyph unicode="6" d="M123 725q0 389 141.5 623.5t429.5 234.5q205 0 333 -113.5t165 -308.5h-178q-35 125 -113 188.5t-207 63.5q-193 0 -290 -157.5t-97 -450.5q121 213 391 213q147 0 259 -65.5t173.5 -182.5t61.5 -264t-63.5 -268t-178 -189.5t-260.5 -68.5q-287 0 -427 202.5t-140 542.5z M332 498q0 -100 46 -179t127 -124t183 -45q96 0 168 47t110 125.5t38 175.5q0 158 -85 254t-231 96q-100 0 -182 -45t-128 -125t-46 -180z" />
<glyph unicode="7" d="M106 1393v170h1090v-162l-721 -1401h-207l729 1393h-891z" />
<glyph unicode="8" d="M119 465q0 139 77.5 246.5t217.5 142.5q-109 31 -170.5 118t-61.5 191q0 123 60.5 218.5t169 148.5t243.5 53t244 -53t169 -148.5t60 -218.5q0 -104 -61 -192t-170 -117q139 -35 217 -142.5t78 -246.5q0 -141 -66.5 -252t-188.5 -172t-282 -61q-159 0 -281 61t-188.5 172 t-66.5 252zM307 465q0 -150 97.5 -232.5t250.5 -82.5q154 0 251.5 82.5t97.5 232.5q0 139 -94.5 224t-254.5 85t-254 -85t-94 -224zM371 1161q0 -115 74.5 -179t209.5 -64q136 0 210.5 64.5t74.5 178.5q0 113 -78 182.5t-207 69.5t-206.5 -69.5t-77.5 -182.5z" />
<glyph unicode="9" d="M119 401h178q35 -125 112.5 -188t206.5 -63q193 0 290.5 157.5t97.5 450.5q-121 -213 -392 -213q-147 0 -258.5 65.5t-173 182t-61.5 264.5q0 147 63.5 268t178 189.5t260.5 68.5q286 0 426.5 -202.5t140.5 -542.5q0 -389 -141.5 -623.5t-430.5 -234.5 q-205 0 -332.5 113.5t-164.5 307.5zM307 1065q0 -158 85 -254t231 -96q100 0 182 45t128 125t46 180t-46 179t-127 124t-183 45q-97 0 -168.5 -47t-109.5 -126t-38 -175z" />
<glyph unicode=":" horiz-adv-x="471" d="M115 102q0 49 35.5 84t87.5 35q47 0 82.5 -34.5t35.5 -84.5q0 -51 -34.5 -86.5t-83.5 -35.5q-52 0 -87.5 35.5t-35.5 86.5zM115 958q0 49 36.5 85t86.5 36q49 0 83.5 -35.5t34.5 -85.5q0 -49 -34.5 -85.5t-83.5 -36.5q-52 0 -87.5 35.5t-35.5 86.5z" />
<glyph unicode=";" horiz-adv-x="471" d="M100 96q0 55 36 90t95 35q80 0 128.5 -65.5t48.5 -171.5q0 -125 -75 -221.5t-224 -112.5v92q94 14 145 73.5t51 147.5q0 31 -6 62q-27 -45 -92 -45q-45 0 -76 31.5t-31 84.5zM100 958q0 49 37 85t86 36q47 0 83 -35.5t36 -85.5q0 -51 -36 -86.5t-83 -35.5q-49 0 -86 35.5 t-37 86.5z" />
<glyph unicode="&#x3c;" horiz-adv-x="1144" d="M90 608v174l957 361v-154l-799 -293l799 -295v-151z" />
<glyph unicode="=" d="M211 397v164h887v-164h-887zM211 852v164h887v-164h-887z" />
<glyph unicode="&#x3e;" horiz-adv-x="1144" d="M98 250v151l799 295l-799 293v154l957 -361v-174z" />
<glyph unicode="?" horiz-adv-x="1120" d="M84 1137q12 207 140 325.5t329 118.5q203 0 334 -108.5t131 -305.5q0 -86 -25.5 -146t-63.5 -99t-102 -86q-63 -49 -101 -88t-64.5 -99.5t-26.5 -148.5v-58h-164v58q0 119 32 197.5t76 123.5t115 99q57 41 89 71.5t53.5 75.5t21.5 109q0 123 -79 188.5t-216 65.5 q-145 0 -227 -78t-92 -215h-160zM430 102q0 47 36 83t85 36t85 -34.5t36 -84.5q0 -51 -36 -86.5t-85 -35.5t-85 35.5t-36 86.5z" />
<glyph unicode="@" horiz-adv-x="2048" d="M51 573q0 285 126 516.5t350.5 363.5t510.5 132q274 0 494.5 -125t344.5 -346t124 -500q0 -195 -61.5 -352.5t-178 -249.5t-272.5 -92q-129 0 -196.5 83t-82.5 269q-115 -225 -340 -225q-166 0 -268 112.5t-102 313.5q0 172 72.5 334t203.5 264.5t295 102.5 q96 0 162.5 -43.5t116.5 -143.5l26 129h152l-25 -117q-68 -317 -99.5 -491t-31.5 -266q0 -86 35 -130t102 -44q100 0 177 71.5t119 195.5t42 275q0 240 -102.5 426.5t-285.5 290t-417 103.5q-244 0 -435 -112t-296.5 -306.5t-105.5 -438.5q0 -240 103.5 -423t287.5 -282 t422 -99q145 0 278 47v-162q-125 -41 -280 -41q-275 0 -495 121t-345 340t-125 499zM653 471q0 -137 57.5 -203.5t159.5 -66.5q121 0 216.5 83t148.5 213t53 261q0 133 -56 196.5t-157 63.5q-123 0 -219 -80t-149.5 -207t-53.5 -260z" />
<glyph unicode="A" horiz-adv-x="1421" d="M29 0l575 1563h213l576 -1563h-191l-137 383h-709l-137 -383h-190zM420 551h581l-290 819z" />
<glyph unicode="B" horiz-adv-x="1413" d="M162 0v1563h588q256 0 376 -115q104 -98 105 -277q0 -143 -72 -241.5t-194 -110.5q164 -12 254 -112.5t90 -266.5q0 -188 -115 -303q-78 -74 -190.5 -105.5t-229.5 -31.5h-612zM350 170h404q82 0 157.5 14.5t132.5 67.5q76 70 76 201q0 170 -100 217t-225 47h-445v-547z M350 885h400q137 0 213.5 67.5t76.5 188.5q0 111 -65 172q-82 80 -266 80h-359v-508z" />
<glyph unicode="C" horiz-adv-x="1531" d="M102 782q0 219 80 401.5t242 291t399 108.5q170 0 303.5 -57.5t215 -159.5t106.5 -236h-205q-29 131 -142.5 208t-281.5 77q-170 0 -288.5 -81t-179 -224t-60.5 -328q0 -186 60.5 -329.5t179 -224.5t288.5 -81q172 0 283.5 83t140.5 243h205q-37 -229 -202 -361 t-423 -132q-237 0 -399 109.5t-242 291.5t-80 401z" />
<glyph unicode="D" horiz-adv-x="1499" d="M162 0v1563h430q389 0 596 -205t207 -582q0 -371 -208 -573.5t-597 -202.5h-428zM350 170h238q283 0 450.5 133t167.5 473q0 616 -616 617h-240v-1223z" />
<glyph unicode="E" horiz-adv-x="1261" d="M162 0v1563h1009v-170h-821v-525h725v-168h-725v-530h821v-170h-1009z" />
<glyph unicode="F" horiz-adv-x="1230" d="M162 0v1563h1009v-170h-821v-525h725v-168h-725v-700h-188z" />
<glyph unicode="G" horiz-adv-x="1652" d="M102 780q0 215 81 397.5t246 294t409 111.5q254 0 423 -122t236 -328h-211q-53 131 -170 206.5t-282 75.5q-182 0 -304 -87t-180.5 -230.5t-58.5 -311.5q0 -176 61.5 -321.5t185.5 -231.5t300 -86q229 0 365 135.5t136 366.5h-374v168h559v-817h-172v223 q-80 -119 -218.5 -181t-293.5 -62q-244 0 -411 111.5t-247 292.5t-80 396z" />
<glyph unicode="H" horiz-adv-x="1484" d="M162 0v1563h188v-693h783v693h188v-1563h-188v702h-783v-702h-188z" />
<glyph unicode="I" horiz-adv-x="514" d="M162 0v1563h188v-1563h-188z" />
<glyph unicode="J" horiz-adv-x="784" d="M33 0v170h196q106 0 158.5 50t52.5 159v1184h189v-1186q0 -127 -35 -209t-122 -125t-243 -43h-196z" />
<glyph unicode="K" horiz-adv-x="1294" d="M162 0v1563h188v-717l649 717h242l-694 -750l731 -813h-250l-678 760v-760h-188z" />
<glyph unicode="L" horiz-adv-x="1081" d="M162 0v1563h188v-1393h701v-170h-889z" />
<glyph unicode="M" horiz-adv-x="1841" d="M162 0v1563h338l420 -1330l419 1330h340v-1563h-188v1450l-477 -1450h-187l-477 1440v-1440h-188z" />
<glyph unicode="N" horiz-adv-x="1488" d="M162 0v1563h274l703 -1375v1375h186v-1563h-274l-701 1370v-1370h-188z" />
<glyph unicode="O" horiz-adv-x="1660" d="M102 782q0 219 81 401.5t245 291t399 108.5q238 0 403 -108.5t245.5 -289.5t80.5 -403q0 -221 -80.5 -403t-245.5 -290.5t-403 -108.5q-235 0 -399 108.5t-245 291.5t-81 402zM291 782q0 -184 62.5 -327.5t183 -224t290.5 -80.5q172 0 294 80.5t184.5 224t62.5 327.5 t-62.5 326.5t-184.5 223.5t-294 81q-170 0 -290.5 -81t-183 -223t-62.5 -327z" />
<glyph unicode="P" d="M162 0v1563h581q231 0 363.5 -114t132.5 -333q0 -213 -134 -335t-362 -122h-393v-659h-188zM350 827h369q162 0 248 73t86 210q0 135 -88 209t-246 74h-369v-566z" />
<glyph unicode="Q" horiz-adv-x="1662" d="M102 782q0 219 81 401.5t245 291t399 108.5q238 0 403 -108.5t245.5 -289.5t80.5 -403q0 -196 -64.5 -363t-188.5 -276l204 -321h-207l-149 223q-139 -65 -319 -65h-5q-236 0 -399.5 108.5t-244.5 291.5t-81 402zM291 782q0 -184 62.5 -327.5t183 -224t290.5 -80.5 q172 0 294 80.5t184.5 224t62.5 327.5t-62.5 326.5t-184.5 223.5t-294 81q-170 0 -290.5 -81t-183 -223t-62.5 -327z" />
<glyph unicode="R" horiz-adv-x="1351" d="M162 0v1563h581q231 0 363.5 -114t132.5 -333q0 -156 -73.5 -264.5t-207.5 -157.5l302 -694h-207l-277 659h-33h-393v-659h-188zM350 827h369q162 0 248 73t86 210q0 135 -88 209t-246 74h-369v-566z" />
<glyph unicode="S" horiz-adv-x="1378" d="M86 473h190q35 -172 163 -249t296 -77t259 70t91 207q0 104 -57 164.5t-143 90.5t-232 60q-164 35 -264 71t-169.5 118t-69.5 225q0 131 64.5 228.5t180 149.5t267.5 52q215 0 372.5 -111.5t194.5 -338.5h-182q-31 150 -137.5 216t-250.5 66q-156 0 -238.5 -65.5 t-82.5 -180.5q0 -90 52 -142t131 -78.5t216 -55.5q174 -37 280.5 -77t181.5 -130t75 -250q0 -211 -142.5 -333.5t-404.5 -122.5q-250 0 -427 122.5t-214 370.5z" />
<glyph unicode="T" horiz-adv-x="1304" d="M29 1393v170h1247v-170h-531v-1393h-188v1393h-528z" />
<glyph unicode="U" horiz-adv-x="1456" d="M147 541v1022h189v-1022q0 -188 96 -291t295 -103t295 102.5t96 291.5v1022h189v-1022q0 -266 -145.5 -413.5t-434.5 -147.5t-434.5 147t-145.5 414z" />
<glyph unicode="V" horiz-adv-x="1421" d="M29 1563h190l492 -1370l491 1370h191l-576 -1563h-213z" />
<glyph unicode="W" horiz-adv-x="2199" d="M41 1563h197l387 -1293l385 1293h180l387 -1295l385 1295h197l-463 -1563h-213l-383 1255l-383 -1255h-213z" />
<glyph unicode="X" horiz-adv-x="1400" d="M33 0l540 786l-532 777h225l434 -645l435 645h225l-533 -777l541 -786h-223l-445 643l-444 -643h-223z" />
<glyph unicode="Y" horiz-adv-x="1380" d="M8 1563h219l461 -779l467 779h215l-579 -965v-598h-197v598z" />
<glyph unicode="Z" horiz-adv-x="1298" d="M59 0v137l940 1256h-890v170h1124v-142l-932 -1251h930v-170h-1172z" />
<glyph unicode="[" horiz-adv-x="700" d="M199 -225v2011h448v-150h-274v-1712h274v-149h-448z" />
<glyph unicode="\" horiz-adv-x="929" d="M66 1563h161l709 -1790h-162z" />
<glyph unicode="]" horiz-adv-x="700" d="M53 -76h275v1712h-275v150h449v-2011h-449v149z" />
<glyph unicode="^" horiz-adv-x="1101" d="M104 606l359 957h174l360 -957h-153l-293 799l-295 -799h-152z" />
<glyph unicode="_" horiz-adv-x="841" d="M-29 0h899v-131h-899v131z" />
<glyph unicode="`" horiz-adv-x="509" d="M29 1563h213l239 -312h-159z" />
<glyph unicode="a" horiz-adv-x="1179" d="M98 301q0 147 111 234q90 72 260 106l403 78q0 133 -69 203q-77 77 -206 77h-3q-104 0 -181 -56t-98 -150h-174q29 170 157 265t298 95q100 0 186 -29.5t146 -87.5q78 -74 98.5 -170t20.5 -198v-668h-175v178q-59 -86 -137 -133q-102 -65 -263 -65h-5q-170 0 -269.5 86 t-99.5 235zM272 305q0 -78 58.5 -125t156.5 -47q105 0 181 39q115 59 160.5 157.5t45.5 248.5l-368 -74q-127 -25 -187 -80q-47 -47 -47 -119z" />
<glyph unicode="b" horiz-adv-x="1298" d="M147 0v1563h175v-607q86 111 169.5 154t200.5 43q152 0 265.5 -73.5t176 -208t62.5 -306.5t-62.5 -305t-177 -206.5t-264.5 -73.5q-119 0 -202.5 44t-167.5 152v-176h-175zM315 565q0 -123 46.5 -222t128 -154.5t186.5 -55.5q104 0 183 56.5t121 154.5t42 221 q0 125 -42 223.5t-121 154.5t-183 56t-186 -56t-128.5 -154.5t-46.5 -223.5z" />
<glyph unicode="c" horiz-adv-x="1232" d="M98 571q0 166 70 299.5t194.5 208t284.5 74.5q190 0 322.5 -97.5t171.5 -262.5h-187q-33 94 -115.5 150t-191.5 56q-106 0 -191 -55t-134.5 -152.5t-49.5 -220.5q0 -127 48.5 -226t134.5 -155.5t192 -56.5q117 0 202 63.5t114 168.5h186q-37 -180 -173 -282.5 t-329 -102.5q-160 0 -284.5 75.5t-194.5 210.5t-70 305z" />
<glyph unicode="d" horiz-adv-x="1298" d="M102 565q0 172 62.5 306.5t176.5 208t265 73.5q117 0 201 -43t170 -154v607h174v-1563h-174v176q-84 -109 -168 -152.5t-203 -43.5q-149 0 -264 73.5t-177.5 206.5t-62.5 305zM276 565q0 -123 42 -221t121 -154.5t184 -56.5q104 0 186 55.5t128 154.5t46 222 q0 125 -46 223.5t-128 154.5t-186 56t-183.5 -56t-121.5 -154.5t-42 -223.5z" />
<glyph unicode="e" horiz-adv-x="1288" d="M98 563q0 158 65.5 292t189.5 216t292 82q145 0 270 -65.5t201 -191.5t76 -302v-62h-922q4 -59 23 -112q43 -131 138 -209t216 -78q123 0 211 65.5t127 166.5h186q-55 -172 -188 -278.5t-334 -106.5q-160 0 -285.5 75.5t-195.5 208.5t-70 299zM287 686h719q-4 61 -25 111 q-43 96 -132 149t-200 53q-113 0 -197.5 -53t-132.5 -149q-20 -45 -32 -111z" />
<glyph unicode="f" horiz-adv-x="722" d="M53 979v154h189v122q0 152 73.5 230t219.5 78h145v-154h-107q-82 0 -119.5 -43t-37.5 -133v-100h264v-154h-264v-979h-174v979h-189z" />
<glyph unicode="g" horiz-adv-x="1300" d="M106 561q0 174 62.5 308.5t176.5 209t263 74.5q119 0 203 -44t170 -153v177h174v-1094q0 -262 -135 -376t-375 -114q-194 0 -334.5 84t-171.5 275h178q53 -205 326 -205q338 0 338 303v170q-86 -111 -170 -153.5t-201 -42.5q-150 0 -264.5 73.5t-177 205.5t-62.5 302z M281 567q0 -125 42 -223t120.5 -154.5t183.5 -56.5q104 0 186 56.5t128 154.5t46 223q0 123 -46 221.5t-129 154.5t-185 56q-104 0 -183 -56t-121 -154.5t-42 -221.5z" />
<glyph unicode="h" horiz-adv-x="1181" d="M147 0v1563h175v-607q84 109 162.5 153t172.5 44q240 0 334 -178q35 -68 44 -138.5t9 -154.5v-682h-174v682q0 180 -65 254q-57 63 -174 63q-129 0 -207 -84q-55 -57 -78.5 -157.5t-23.5 -274.5v-483h-175z" />
<glyph unicode="i" horiz-adv-x="464" d="M100 1456q0 53 39 90t94 37t94 -37t39 -90t-38.5 -91t-94.5 -38q-55 0 -94 38t-39 91zM145 0v1133h174v-1133h-174z" />
<glyph unicode="j" horiz-adv-x="466" d="M-119 -270h107q78 0 118.5 36.5t40.5 135.5v1231h175v-1254q0 -154 -74 -231.5t-219 -77.5h-148v160zM100 1456q0 53 39 90t94 37t94 -37t39 -90t-38.5 -91t-94.5 -38q-55 0 -94 38t-39 91z" />
<glyph unicode="k" horiz-adv-x="1134" d="M147 0v1563h175v-883l497 453h242l-555 -498l606 -635h-238l-552 592v-592h-175z" />
<glyph unicode="l" horiz-adv-x="567" d="M141 285v1278h174v-1252q0 -59 8.5 -91t37 -49t90.5 -17h55v-154h-96q-137 0 -203 61.5t-66 223.5z" />
<glyph unicode="m" horiz-adv-x="1841" d="M145 0v1133h174v-177q84 109 163 153t173 44q115 0 202 -53t112 -156q106 209 358 209q188 0 282.5 -107.5t94.5 -308.5v-737h-174v696q0 145 -60.5 224t-169.5 79q-113 0 -184 -75q-57 -61 -80.5 -159.5t-23.5 -252.5v-512h-174v696q0 143 -62.5 223t-169.5 80 q-113 0 -184 -81q-53 -59 -78 -153.5t-25 -252.5v-512h-174z" />
<glyph unicode="n" horiz-adv-x="1179" d="M145 0v1133h174v-177q84 109 163 153t173 44q240 0 334 -178q35 -68 44 -138.5t9 -154.5v-682h-174v682q0 180 -65 254q-57 63 -174 63q-129 0 -207 -84q-55 -57 -79 -157.5t-24 -274.5v-483h-174z" />
<glyph unicode="o" horiz-adv-x="1308" d="M98 571q0 166 71 299.5t197 208t285 74.5q160 0 287 -74.5t198.5 -208t71.5 -299.5q0 -170 -70.5 -304t-197.5 -210.5t-289 -76.5q-159 0 -285 75.5t-197 210.5t-71 305zM272 571q0 -125 49.5 -225t136.5 -156.5t193 -56.5q107 0 194 57.5t137 156.5t50 224 q0 119 -49 217.5t-136 154.5t-196 56q-106 0 -193 -55t-136.5 -153.5t-49.5 -219.5z" />
<glyph unicode="p" horiz-adv-x="1298" d="M147 -430v1563h175v-177q84 109 167.5 153t202.5 44q150 0 264.5 -73.5t177 -207t62.5 -305.5t-62.5 -306t-176 -207.5t-265.5 -73.5q-117 0 -200.5 43t-169.5 153v-606h-175zM315 567q0 -125 46.5 -223t128 -154.5t186.5 -56.5q104 0 183 56.5t121 154.5t42 223 q0 123 -42 221.5t-121 154.5t-183 56q-105 0 -186.5 -55t-128 -154.5t-46.5 -222.5z" />
<glyph unicode="q" horiz-adv-x="1296" d="M102 567q0 172 62.5 305.5t177.5 207t264 73.5q119 0 203 -44t168 -153v177h174v-1309q0 -49 27.5 -71.5t89.5 -22.5h100v-160h-100q-156 0 -223.5 62.5t-67.5 205.5v338q-86 -111 -170 -153.5t-201 -42.5q-152 0 -265.5 73.5t-176 207.5t-62.5 306zM276 567 q0 -125 42 -223t121 -154.5t184 -56.5q104 0 186 56.5t128 154.5t46 223q0 123 -46 221.5t-129 154.5t-185 56q-104 0 -183.5 -56t-121.5 -154.5t-42 -221.5z" />
<glyph unicode="r" horiz-adv-x="743" d="M145 0v1133h174v-156q78 94 166 135t205 41h8v-174h-59q-137 0 -219 -82q-100 -96 -101 -301v-596h-174z" />
<glyph unicode="s" horiz-adv-x="1140" d="M88 365h182q23 -109 106 -170.5t228 -61.5q119 0 189.5 45t70.5 129q0 66 -42 106t-106.5 60.5t-170.5 40.5q-133 27 -214 54.5t-138.5 89t-57.5 169.5q0 154 116 240t296 86q184 0 307 -96t152 -264h-162q-25 104 -102.5 155t-194.5 51q-113 0 -175.5 -42t-62.5 -115 q0 -57 39 -90t96.5 -50.5t161.5 -37.5q137 -27 223 -56.5t147.5 -96.5t61.5 -185q0 -160 -114.5 -253t-321.5 -93q-215 0 -350 102t-164 283z" />
<glyph unicode="t" horiz-adv-x="739" d="M55 979v154h183v430h174v-430h254v-154h-254v-660q0 -59 8 -92.5t36.5 -53t90.5 -19.5h117v-154h-158q-137 0 -202.5 61.5t-65.5 223.5v694h-183z" />
<glyph unicode="u" horiz-adv-x="1183" d="M141 451v682h174v-682q0 -180 66 -254q57 -63 174 -64q129 0 207 84q55 57 78.5 157.5t23.5 274.5v484h174v-1133h-174v176q-82 -104 -160.5 -150t-175.5 -46q-237 0 -333 178q-53 100 -54 293z" />
<glyph unicode="v" horiz-adv-x="1062" d="M41 1133h192l297 -838l301 838h191l-420 -1133h-143z" />
<glyph unicode="w" horiz-adv-x="1679" d="M51 1133h187l237 -850l285 850h158l284 -850l240 850h186l-336 -1133h-162l-290 887l-295 -887h-162z" />
<glyph unicode="x" horiz-adv-x="1126" d="M41 0l408 567l-408 566h207l313 -445l316 445h208l-413 -566l413 -567h-208l-316 444l-313 -444h-207z" />
<glyph unicode="y" horiz-adv-x="1124" d="M37 1133h192l344 -879l320 879h188l-501 -1360q-45 -121 -102.5 -162t-164.5 -41h-168v160h107q51 0 77.5 7t47 31.5t41.5 79.5l61 168z" />
<glyph unicode="z" horiz-adv-x="1091" d="M70 0v147l737 832h-698v154h909v-164l-723 -815h717v-154h-942z" />
<glyph unicode="{" horiz-adv-x="649" d="M70 698v164q68 20 103.5 62.5t35.5 122.5v444q0 139 62.5 217t183.5 78h141v-144h-78q-131 0 -131 -157v-443q0 -205 -151 -262q152 -57 151 -262v-442q0 -158 131 -158h78v-143h-141q-121 0 -183.5 77.5t-62.5 217.5v444q0 80 -36 122t-103 62z" />
<glyph unicode="|" horiz-adv-x="673" d="M250 -225v2011h174v-2011h-174z" />
<glyph unicode="}" horiz-adv-x="649" d="M53 -82h78q131 0 131 158v442q0 205 152 262q-152 57 -152 262v443q0 158 -131 157h-78v144h142q121 0 183 -78t62 -217v-444q0 -80 36 -122t104 -63v-164q-68 -20 -104 -62t-36 -122v-444q0 -139 -62.5 -217t-182.5 -78h-142v143z" />
<glyph unicode="~" horiz-adv-x="1079" d="M111 445q6 145 67.5 227t164.5 82q61 0 100 -26.5t84 -76.5q33 -35 53.5 -50t46.5 -15q33 0 53.5 40t24.5 118h141q-10 -156 -62 -232t-159 -76q-67 0 -109 28t-87 77q-29 33 -49.5 48t-45.5 15q-76 0 -86 -159h-137z" />
<glyph unicode="&#xa1;" horiz-adv-x="677" d="M231 1030q0 51 35 87t84 36q51 0 87 -36t36 -87q0 -49 -36 -84t-87 -35q-47 0 -83 35t-36 84zM264 139q0 199 8 436q4 74 4 111h150q0 -37 4 -111q8 -238 8 -436v-569h-174v569z" />
<glyph unicode="&#xa2;" d="M137 571q0 158 63.5 287t178.5 206t262 87v215h86v-215q174 -10 295 -106.5t158 -251.5h-187q-29 86 -99.5 140t-166.5 64v-862q102 10 176 71.5t98 158.5h187q-35 -170 -159 -271.5t-302 -111.5v-187h-86v187q-147 10 -262 87.5t-178.5 208t-63.5 293.5zM311 571 q0 -178 92.5 -297.5t237.5 -138.5v862q-145 -18 -237.5 -136t-92.5 -290z" />
<glyph unicode="&#xa3;" d="M135 0v197q150 18 229.5 93t79.5 179q0 70 -27.5 146.5t-78.5 170.5h-193v115h170q-51 102 -51 227q0 133 61.5 236.5t169 161t240.5 57.5q106 0 204.5 -43t166.5 -131t84 -219h-170q-23 117 -102.5 178.5t-178.5 61.5q-133 0 -217 -90.5t-84 -233.5q0 -68 7.5 -115 t25.5 -90h453v-115h-420q55 -109 77.5 -185.5t22.5 -139.5q0 -90 -47 -163t-156 -144h775v-154h-1041z" />
<glyph unicode="&#xa4;" d="M102 248l146 145q-106 141 -107 309q0 168 105 304l-142 143l103 102l143 -143q66 51 145.5 77.5t163.5 26.5q166 0 304 -100l139 139l108 -104l-143 -143q51 -66 77.5 -144t26.5 -160q0 -170 -104 -309l137 -139l-108 -100l-133 135q-137 -102 -306 -103 q-170 0 -307 103l-139 -140zM293 700q0 -76 26.5 -143.5t77.5 -118.5q53 -53 121 -79.5t139 -26.5q72 0 139.5 26.5t118.5 77.5q109 109 109 260q0 72 -28.5 140.5t-82.5 121.5q-53 53 -119.5 80t-138.5 27t-139 -27.5t-121 -81.5q-51 -51 -76.5 -117.5t-25.5 -138.5z" />
<glyph unicode="&#xa5;" d="M-20 1563h219l460 -779l467 779h215l-536 -893h293v-119h-336v-115h336v-119h-336v-317h-197v317h-340v119h340v115h-340v119h297z" />
<glyph unicode="&#xa6;" horiz-adv-x="673" d="M250 -225v862h174v-862h-174zM250 915v871h174v-871h-174z" />
<glyph unicode="&#xa7;" horiz-adv-x="1429" d="M129 -55h193q41 -133 153.5 -203t259.5 -70q160 0 253 69t93 191q0 98 -55 156.5t-137 88.5t-217 59q-25 8 -60 14q-125 27 -216 66.5t-150.5 115.5t-59.5 199q0 82 40 149.5t132 130.5q-92 55 -132 121t-40 156q0 121 69 211t186.5 137t267.5 47q201 0 339 -98.5 t187 -284.5h-182q-43 109 -134.5 166t-220.5 57q-145 0 -229 -61.5t-84 -167.5q0 -86 53.5 -137t130 -77t207.5 -52q154 -33 255.5 -72t173 -125t71.5 -233q0 -82 -32 -150.5t-114 -132.5q82 -57 114 -121.5t32 -152.5q0 -197 -140.5 -311.5t-394.5 -114.5 q-231 0 -402 108.5t-210 321.5zM385 639q0 -86 52 -137t128 -76t207 -53q127 -25 225 -60q84 70 84 176q0 100 -56 159t-138 86.5t-223 58.5l-50 10q-51 10 -86 22q-68 -25 -105.5 -72.5t-37.5 -113.5z" />
<glyph unicode="&#xa8;" horiz-adv-x="733" d="M28 1456q0 53 39 90t95 37q55 0 94 -37t39 -90t-39 -91t-94 -38q-56 0 -95 38t-39 91zM438 1456q0 53 39 90t94 37t94 -37t39 -90t-38.5 -91t-94.5 -38q-55 0 -94 38t-39 91z" />
<glyph unicode="&#xa9;" horiz-adv-x="1849" d="M123 782q0 217 107.5 400.5t292 291t401.5 107.5t401 -106.5t291.5 -290t107.5 -402.5t-107.5 -402t-291.5 -290.5t-401 -107.5t-401.5 107.5t-292 290.5t-107.5 402zM272 782q0 -178 87 -327.5t236.5 -236.5t328.5 -87q178 0 327.5 87t236.5 236.5t87 327.5t-87 326.5 t-236.5 236t-327.5 87.5t-328 -87.5t-237 -235.5t-87 -327zM463 782q0 127 61.5 233.5t167 168t232.5 61.5q96 0 185 -39t155 -108l-109 -105q-92 102 -231 103q-86 0 -158 -42t-113 -114t-41 -158t41 -157.5t113 -113.5t158 -42q139 0 231 102l109 -104q-66 -70 -155 -109 t-185 -39q-127 0 -232.5 61.5t-167 168t-61.5 233.5z" />
<glyph unicode="&#xaa;" horiz-adv-x="894" d="M98 987q0 102 76 164q59 47 182 74l283 55q0 94 -49 141q-51 55 -146 56q-74 0 -127 -40t-67 -106h-123q20 119 110.5 185.5t208.5 66.5q72 0 131.5 -20.5t100.5 -61.5q55 -51 69.5 -118.5t14.5 -139.5v-467h-123v125q-43 -61 -96 -94q-74 -45 -187 -45q-118 0 -188 60.5 t-70 164.5zM219 989q0 -53 41 -86t111 -33q74 0 125 27q82 43 113.5 110.5t31.5 172.5l-258 -52q-88 -14 -131 -55q-33 -37 -33 -84z" />
<glyph unicode="&#xab;" horiz-adv-x="1171" d="M43 565l444 381v-153l-266 -230l266 -225v-154zM588 565l444 381v-153l-266 -230l266 -225v-154z" />
<glyph unicode="&#xad;" horiz-adv-x="763" d="M0 618v132h764v-132h-764z" />
<glyph unicode="&#xae;" horiz-adv-x="1013" d="M90 1167q0 115 55.5 210.5t150.5 150.5t210 55t210 -55t150.5 -150.5t55.5 -210.5t-55.5 -210t-150.5 -150t-210 -55t-210 55t-150.5 150.5t-55.5 209.5zM154 1167q0 -96 47 -177t128 -128t177 -47t177 47t128 128t47 177t-47 177t-128 128.5t-177 47.5t-177 -47.5 t-128 -128t-47 -177.5zM344 924v483h199q70 0 111.5 -35t41.5 -104q0 -47 -20.5 -82t-61.5 -43l93 -219h-86l-80 198h-117v-198h-80zM424 1192h108q39 0 61.5 18.5t22.5 53.5t-22.5 54t-61.5 19h-108v-145z" />
<glyph unicode="&#xaf;" horiz-adv-x="663" d="M29 1352v88h606v-88h-606z" />
<glyph unicode="&#xb0;" horiz-adv-x="978" d="M168 1264q0 86 43 159.5t116.5 116.5t159.5 43t161 -43t118 -115.5t43 -160.5q0 -86 -44 -160t-118 -117t-160 -43q-84 0 -157.5 43t-117.5 117t-44 160zM305 1264q0 -76 53.5 -129.5t128.5 -53.5q76 0 130.5 53.5t54.5 129.5t-53.5 129t-131.5 53q-76 0 -129 -53.5 t-53 -128.5z" />
<glyph unicode="&#xb1;" horiz-adv-x="1423" d="M143 0v145h1137v-145h-1137zM143 655v146h496v332h145v-332h496v-146h-496v-331h-145v331h-496z" />
<glyph unicode="&#xb4;" horiz-adv-x="509" d="M29 1251l239 312h213l-293 -312h-159z" />
<glyph unicode="&#xb6;" horiz-adv-x="1288" d="M102 1126q0 133 70 232.5t184.5 152t245.5 52.5h176v-1788h-176v911q-133 8 -247.5 62.5t-183.5 151.5t-69 226zM950 -225v1788h176v-1788h-176z" />
<glyph unicode="&#xb7;" horiz-adv-x="669" d="M182 811q0 63 44 107.5t106 44.5q63 0 108 -44.5t45 -107.5q0 -61 -45 -105t-108 -44q-64 0 -107 44t-43 105z" />
<glyph unicode="&#xb8;" horiz-adv-x="497" d="M29 -348q98 -37 180 -37q70 0 111 27.5t41 78.5q0 72 -76 99.5t-223 23.5l143 185h111q-8 -8 -41 -47t-96 -84l14 -19q49 6 78 6q47 0 77 -12q121 -39 121 -147q0 -84 -69.5 -130.5t-182.5 -46.5q-96 0 -188 27v76z" />
<glyph unicode="&#xba;" horiz-adv-x="974" d="M98 1176q0 117 49.5 210t137.5 145t200 52q111 0 200 -52t139 -145.5t50 -209.5q0 -119 -49 -213.5t-138 -147.5t-202 -53q-112 0 -200 53t-137.5 147.5t-49.5 213.5zM219 1176q0 -133 76 -219.5t190 -86.5q115 0 191 87t76 219q0 129 -76 215t-191 86t-190.5 -86 t-75.5 -215z" />
<glyph unicode="&#xbb;" horiz-adv-x="1171" d="M139 184v154l267 225l-267 230v153l445 -381zM684 184v154l266 225l-266 230v153l444 -381z" />
<glyph unicode="&#xbf;" horiz-adv-x="1083" d="M78 -35q0 86 25.5 146.5t63.5 99.5t101 86q63 49 101.5 88t65 99.5t26.5 148.5v57h164v-57q0 -119 -32 -198t-76 -124t-116 -98q-57 -41 -88.5 -71.5t-53 -76t-21.5 -108.5q0 -123 78.5 -188.5t215.5 -65.5q145 0 227.5 78t92.5 215h160q-12 -207 -140.5 -326 t-328.5 -119q-203 0 -334 109t-131 305zM424 1030q0 51 36 87t85 36t85 -36t36 -87q0 -47 -36 -83t-85 -36t-85 35t-36 84z" />
<glyph unicode="&#xc0;" horiz-adv-x="1421" d="M29 0l575 1563h213l576 -1563h-191l-137 383h-709l-137 -383h-190zM353 1993h213l239 -312h-159zM420 551h581l-290 819z" />
<glyph unicode="&#xc1;" horiz-adv-x="1421" d="M29 0l575 1563h213l576 -1563h-191l-137 383h-709l-137 -383h-190zM420 551h581l-290 819zM617 1681l239 312h213l-293 -312h-159z" />
<glyph unicode="&#xc2;" horiz-adv-x="1421" d="M29 0l575 1563h213l576 -1563h-191l-137 383h-709l-137 -383h-190zM364 1696l332 348h29l331 -348h-200l-146 178l-145 -178h-201zM420 551h581l-290 819z" />
<glyph unicode="&#xc3;" horiz-adv-x="1421" d="M29 0l575 1563h213l576 -1563h-191l-137 383h-709l-137 -383h-190zM340 1694q6 145 67.5 227t164.5 82q61 0 100 -26.5t84 -76.5q33 -35 53.5 -50t46.5 -15q33 0 53.5 40t24.5 118h141q-10 -156 -62 -232t-159 -76q-67 0 -109 28t-87 77q-29 33 -49.5 48t-45.5 15 q-76 0 -86 -159h-137zM420 551h581l-290 819z" />
<glyph unicode="&#xc4;" horiz-adv-x="1421" d="M29 0l575 1563h213l576 -1563h-191l-137 383h-709l-137 -383h-190zM385 1778q0 49 36 83.5t85 34.5q47 0 83 -34.5t36 -83.5q0 -47 -36 -82t-83 -35q-49 0 -85 34t-36 83zM420 551h581l-290 819zM795 1778q0 49 35.5 83.5t84.5 34.5q47 0 83 -34.5t36 -83.5 q0 -47 -36 -82t-83 -35q-49 0 -84.5 34t-35.5 83z" />
<glyph unicode="&#xc5;" horiz-adv-x="1421" d="M29 0l544 1481q-51 33 -78.5 86t-27.5 114q0 100 70.5 171t171.5 71q100 0 172.5 -69.5t72.5 -172.5q0 -61 -27.5 -114.5t-78.5 -85.5l545 -1481h-191l-137 383h-709l-137 -383h-190zM420 551h581l-290 823zM596 1686q0 -51 34 -86t81 -35q51 0 83.5 33.5t32.5 87.5 q0 47 -31.5 79.5t-84.5 32.5q-49 0 -82 -32.5t-33 -79.5z" />
<glyph unicode="&#xc6;" horiz-adv-x="2195" d="M29 0l575 1563h987l64 -170h-772l192 -525h772l60 -168h-770l194 -530h772l64 -170h-973l-129 383h-709l-137 -383h-190zM420 551h581l-290 825z" />
<glyph unicode="&#xc7;" horiz-adv-x="1531" d="M102 782q0 219 80 401.5t242 291t399 108.5q170 0 303.5 -57.5t215 -159.5t106.5 -236h-205q-29 131 -142.5 208t-281.5 77q-170 0 -288.5 -81t-179 -224t-60.5 -328q0 -186 60.5 -329.5t179 -224.5t288.5 -81q172 0 283.5 83t140.5 243h205q-37 -229 -202 -361 t-423 -132h-32q-39 -43 -95 -82l15 -19q49 6 77 6q47 0 78 -12q121 -39 121 -147q0 -84 -69.5 -130.5t-182.5 -46.5q-94 0 -188 27v76q98 -37 180 -37q70 0 111 27.5t41 78.5q0 72 -76 99.5t-223 23.5l112 146q-195 29 -328 142.5t-197.5 282.5t-64.5 367z" />
<glyph unicode="&#xc8;" horiz-adv-x="1261" d="M162 0v1563h1009v-170h-821v-525h725v-168h-725v-530h821v-170h-1009zM310 1993h213l239 -312h-159z" />
<glyph unicode="&#xc9;" horiz-adv-x="1261" d="M162 0v1563h1009v-170h-821v-525h725v-168h-725v-530h821v-170h-1009zM574 1681l239 312h213l-293 -312h-159z" />
<glyph unicode="&#xca;" horiz-adv-x="1261" d="M162 0v1563h1009v-170h-821v-525h725v-168h-725v-530h821v-170h-1009zM321 1696l332 348h29l331 -348h-200l-146 178l-145 -178h-201z" />
<glyph unicode="&#xcb;" horiz-adv-x="1261" d="M162 0v1563h1009v-170h-821v-525h725v-168h-725v-530h821v-170h-1009zM342 1778q0 49 36 83.5t85 34.5q47 0 83 -34.5t36 -83.5q0 -47 -36 -82t-83 -35q-49 0 -85 34t-36 83zM752 1778q0 49 35.5 83.5t84.5 34.5q47 0 83 -34.5t36 -83.5q0 -47 -36 -82t-83 -35 q-49 0 -84.5 34t-35.5 83z" />
<glyph unicode="&#xcc;" horiz-adv-x="514" d="M-102 1993h213l239 -312h-159zM162 0v1563h188v-1563h-188z" />
<glyph unicode="&#xcd;" horiz-adv-x="514" d="M162 0v1563h188v-1563h-188zM162 1681l239 312h213l-293 -312h-159z" />
<glyph unicode="&#xce;" horiz-adv-x="514" d="M-90 1696l332 348h29l331 -348h-200l-146 178l-145 -178h-201zM162 0v1563h188v-1563h-188z" />
<glyph unicode="&#xcf;" horiz-adv-x="514" d="M-70 1778q0 49 36 83.5t85 34.5q47 0 83 -34.5t36 -83.5q0 -47 -36 -82t-83 -35q-49 0 -85 34t-36 83zM162 0v1563h188v-1563h-188zM340 1778q0 49 35.5 83.5t84.5 34.5q47 0 83 -34.5t36 -83.5q0 -47 -36 -82t-83 -35q-49 0 -84.5 34t-35.5 83z" />
<glyph unicode="&#xd0;" horiz-adv-x="1499" d="M14 709v145h148v709h430q389 0 596 -205t207 -582q0 -371 -208 -573.5t-597 -202.5h-428v709h-148zM350 170h238q283 0 450.5 133t167.5 473q0 616 -616 617h-240v-539h502v-145h-502v-539z" />
<glyph unicode="&#xd1;" horiz-adv-x="1488" d="M162 0v1563h274l703 -1375v1375h186v-1563h-274l-701 1370v-1370h-188zM373 1694q6 145 67.5 227t164.5 82q61 0 100 -26.5t84 -76.5q33 -35 53.5 -50t46.5 -15q33 0 53.5 40t24.5 118h141q-10 -156 -62 -232t-159 -76q-67 0 -109 28t-87 77q-29 33 -49.5 48t-45.5 15 q-76 0 -86 -159h-137z" />
<glyph unicode="&#xd2;" horiz-adv-x="1660" d="M102 782q0 219 81 401.5t245 291t399 108.5q238 0 403 -108.5t245.5 -289.5t80.5 -403q0 -221 -80.5 -403t-245.5 -290.5t-403 -108.5q-235 0 -399 108.5t-245 291.5t-81 402zM291 782q0 -184 62.5 -327.5t183 -224t290.5 -80.5q172 0 294 80.5t184.5 224t62.5 327.5 t-62.5 326.5t-184.5 223.5t-294 81q-170 0 -290.5 -81t-183 -223t-62.5 -327zM471 1993h213l239 -312h-159z" />
<glyph unicode="&#xd3;" horiz-adv-x="1660" d="M102 782q0 219 81 401.5t245 291t399 108.5q238 0 403 -108.5t245.5 -289.5t80.5 -403q0 -221 -80.5 -403t-245.5 -290.5t-403 -108.5q-235 0 -399 108.5t-245 291.5t-81 402zM291 782q0 -184 62.5 -327.5t183 -224t290.5 -80.5q172 0 294 80.5t184.5 224t62.5 327.5 t-62.5 326.5t-184.5 223.5t-294 81q-170 0 -290.5 -81t-183 -223t-62.5 -327zM736 1681l239 312h213l-293 -312h-159z" />
<glyph unicode="&#xd4;" horiz-adv-x="1660" d="M102 782q0 219 81 401.5t245 291t399 108.5q238 0 403 -108.5t245.5 -289.5t80.5 -403q0 -221 -80.5 -403t-245.5 -290.5t-403 -108.5q-235 0 -399 108.5t-245 291.5t-81 402zM291 782q0 -184 62.5 -327.5t183 -224t290.5 -80.5q172 0 294 80.5t184.5 224t62.5 327.5 t-62.5 326.5t-184.5 223.5t-294 81q-170 0 -290.5 -81t-183 -223t-62.5 -327zM483 1696l332 348h29l331 -348h-200l-146 178l-145 -178h-201z" />
<glyph unicode="&#xd5;" horiz-adv-x="1660" d="M102 782q0 219 81 401.5t245 291t399 108.5q238 0 403 -108.5t245.5 -289.5t80.5 -403q0 -221 -80.5 -403t-245.5 -290.5t-403 -108.5q-235 0 -399 108.5t-245 291.5t-81 402zM291 782q0 -184 62.5 -327.5t183 -224t290.5 -80.5q172 0 294 80.5t184.5 224t62.5 327.5 t-62.5 326.5t-184.5 223.5t-294 81q-170 0 -290.5 -81t-183 -223t-62.5 -327zM459 1694q6 145 67.5 227t164.5 82q61 0 100 -26.5t84 -76.5q33 -35 53.5 -50t46.5 -15q33 0 53.5 40t24.5 118h141q-10 -156 -62 -232t-159 -76q-67 0 -109 28t-87 77q-29 33 -49.5 48t-45.5 15 q-76 0 -86 -159h-137z" />
<glyph unicode="&#xd6;" horiz-adv-x="1660" d="M102 782q0 219 81 401.5t245 291t399 108.5q238 0 403 -108.5t245.5 -289.5t80.5 -403q0 -221 -80.5 -403t-245.5 -290.5t-403 -108.5q-235 0 -399 108.5t-245 291.5t-81 402zM291 782q0 -184 62.5 -327.5t183 -224t290.5 -80.5q172 0 294 80.5t184.5 224t62.5 327.5 t-62.5 326.5t-184.5 223.5t-294 81q-170 0 -290.5 -81t-183 -223t-62.5 -327zM504 1778q0 49 36 83.5t85 34.5q47 0 83 -34.5t36 -83.5q0 -47 -36 -82t-83 -35q-49 0 -85 34t-36 83zM914 1778q0 49 35.5 83.5t84.5 34.5q47 0 83 -34.5t36 -83.5q0 -47 -36 -82t-83 -35 q-49 0 -84.5 34t-35.5 83z" />
<glyph unicode="&#xd7;" d="M201 340l350 352l-350 350l102 103l352 -350l351 350l102 -103l-350 -350l350 -352l-102 -102l-351 350l-352 -350z" />
<glyph unicode="&#xd8;" horiz-adv-x="1660" d="M102 782q0 219 81 401.5t245 291t399 108.5q319 0 512 -199l123 123l92 -94l-131 -131q66 -102 99.5 -230t33.5 -270q0 -221 -80.5 -403t-245.5 -290.5t-403 -108.5q-162 0 -289.5 52t-220.5 146l-120 -121l-93 93l134 133q-68 102 -102 231t-34 268zM291 782 q0 -212 80 -366l839 839q-141 158 -383 158q-170 0 -290.5 -81t-183 -223t-62.5 -327zM446 307q141 -158 381 -157q172 0 294 80.5t184.5 224t62.5 327.5q0 215 -80 365z" />
<glyph unicode="&#xd9;" horiz-adv-x="1456" d="M147 541v1022h189v-1022q0 -188 96 -291t295 -103t295 102.5t96 291.5v1022h189v-1022q0 -266 -145.5 -413.5t-434.5 -147.5t-434.5 147t-145.5 414zM369 1993h213l239 -312h-159z" />
<glyph unicode="&#xda;" horiz-adv-x="1456" d="M147 541v1022h189v-1022q0 -188 96 -291t295 -103t295 102.5t96 291.5v1022h189v-1022q0 -266 -145.5 -413.5t-434.5 -147.5t-434.5 147t-145.5 414zM633 1681l239 312h213l-293 -312h-159z" />
<glyph unicode="&#xdb;" horiz-adv-x="1456" d="M147 541v1022h189v-1022q0 -188 96 -291t295 -103t295 102.5t96 291.5v1022h189v-1022q0 -266 -145.5 -413.5t-434.5 -147.5t-434.5 147t-145.5 414zM381 1696l332 348h29l331 -348h-200l-146 178l-145 -178h-201z" />
<glyph unicode="&#xdc;" horiz-adv-x="1456" d="M147 541v1022h189v-1022q0 -188 96 -291t295 -103t295 102.5t96 291.5v1022h189v-1022q0 -266 -145.5 -413.5t-434.5 -147.5t-434.5 147t-145.5 414zM401 1778q0 49 36 83.5t85 34.5q47 0 83 -34.5t36 -83.5q0 -47 -36 -82t-83 -35q-49 0 -85 34t-36 83zM811 1778 q0 49 35.5 83.5t84.5 34.5q47 0 83 -34.5t36 -83.5q0 -47 -36 -82t-83 -35q-49 0 -84.5 34t-35.5 83z" />
<glyph unicode="&#xdd;" horiz-adv-x="1380" d="M8 1563h219l461 -779l467 779h215l-579 -965v-598h-197v598zM596 1681l239 312h213l-293 -312h-159z" />
<glyph unicode="&#xde;" horiz-adv-x="1312" d="M162 0v1563h186v-222h393q231 0 364.5 -112.5t133.5 -327.5q0 -211 -134 -329.5t-364 -118.5h-393v-453h-186zM348 618h373q160 0 246 71t86 206q0 131 -87 203.5t-245 72.5h-373v-553z" />
<glyph unicode="&#xdf;" horiz-adv-x="1380" d="M164 0v1010q0 274 141 423.5t408 149.5q150 0 266.5 -50t182 -139t65.5 -202q0 -137 -54.5 -221t-166.5 -125q152 -35 225.5 -134.5t73.5 -273.5q0 -203 -143.5 -320.5t-389.5 -117.5h-166v154h148q180 0 278 76.5t98 218.5q0 143 -86 219.5t-245 76.5h-193v154h160 q135 0 211 69.5t76 194.5q0 119 -94.5 193t-245.5 74q-172 0 -273.5 -103.5t-101.5 -316.5v-1010h-174z" />
<glyph unicode="&#xe0;" horiz-adv-x="1179" d="M98 301q0 147 111 234q90 72 260 106l403 78q0 133 -69 203q-78 78 -209 77q-104 0 -181 -56t-98 -150h-174q29 170 157 265t298 95q100 0 186 -29.5t146 -87.5q78 -74 98.5 -170t20.5 -198v-668h-175v178q-59 -86 -137 -133q-104 -66 -268 -65q-170 0 -269.5 86 t-99.5 235zM246 1563h213l239 -312h-159zM272 305q0 -78 58.5 -125t156.5 -47q105 0 181 39q115 59 160.5 157.5t45.5 248.5l-368 -74q-127 -25 -187 -80q-47 -47 -47 -119z" />
<glyph unicode="&#xe1;" horiz-adv-x="1179" d="M98 301q0 147 111 234q90 72 260 106l403 78q0 133 -69 203q-78 78 -209 77q-104 0 -181 -56t-98 -150h-174q29 170 157 265t298 95q100 0 186 -29.5t146 -87.5q78 -74 98.5 -170t20.5 -198v-668h-175v178q-59 -86 -137 -133q-104 -66 -268 -65q-170 0 -269.5 86 t-99.5 235zM272 305q0 -78 58.5 -125t156.5 -47q105 0 181 39q115 59 160.5 157.5t45.5 248.5l-368 -74q-127 -25 -187 -80q-47 -47 -47 -119zM510 1251l239 312h213l-293 -312h-159z" />
<glyph unicode="&#xe2;" horiz-adv-x="1179" d="M98 301q0 147 111 234q90 72 260 106l403 78q0 133 -69 203q-78 78 -209 77q-104 0 -181 -56t-98 -150h-174q29 170 157 265t298 95q100 0 186 -29.5t146 -87.5q78 -74 98.5 -170t20.5 -198v-668h-175v178q-59 -86 -137 -133q-104 -66 -268 -65q-170 0 -269.5 86 t-99.5 235zM258 1266l332 348h29l331 -348h-200l-146 178l-145 -178h-201zM272 305q0 -78 58.5 -125t156.5 -47q105 0 181 39q115 59 160.5 157.5t45.5 248.5l-368 -74q-127 -25 -187 -80q-47 -47 -47 -119z" />
<glyph unicode="&#xe3;" horiz-adv-x="1179" d="M98 301q0 147 111 234q90 72 260 106l403 78q0 133 -69 203q-78 78 -209 77q-104 0 -181 -56t-98 -150h-174q29 170 157 265t298 95q100 0 186 -29.5t146 -87.5q78 -74 98.5 -170t20.5 -198v-668h-175v178q-59 -86 -137 -133q-104 -66 -268 -65q-170 0 -269.5 86 t-99.5 235zM233 1264q6 145 67.5 227t164.5 82q61 0 100 -26.5t84 -76.5q33 -35 53.5 -50t46.5 -15q33 0 53.5 40t24.5 118h141q-10 -156 -62 -232t-159 -76q-67 0 -109 28t-87 77q-29 33 -49.5 48t-45.5 15q-76 0 -86 -159h-137zM272 305q0 -78 58.5 -125t156.5 -47 q105 0 181 39q115 59 160.5 157.5t45.5 248.5l-368 -74q-127 -25 -187 -80q-47 -47 -47 -119z" />
<glyph unicode="&#xe4;" horiz-adv-x="1179" d="M98 301q0 147 111 234q90 72 260 106l403 78q0 133 -69 203q-78 78 -209 77q-104 0 -181 -56t-98 -150h-174q29 170 157 265t298 95q100 0 186 -29.5t146 -87.5q78 -74 98.5 -170t20.5 -198v-668h-175v178q-59 -86 -137 -133q-104 -66 -268 -65q-170 0 -269.5 86 t-99.5 235zM266 1456q0 53 39 90t95 37q55 0 94 -37t39 -90t-39 -91t-94 -38q-56 0 -95 38t-39 91zM272 305q0 -78 58.5 -125t156.5 -47q105 0 181 39q115 59 160.5 157.5t45.5 248.5l-368 -74q-127 -25 -187 -80q-47 -47 -47 -119zM676 1456q0 53 39 90t94 37t94 -37 t39 -90t-38.5 -91t-94.5 -38q-55 0 -94 38t-39 91z" />
<glyph unicode="&#xe5;" horiz-adv-x="1179" d="M98 301q0 147 111 234q90 72 260 106l403 78q0 133 -69 203q-78 78 -209 77q-104 0 -181 -56t-98 -150h-174q29 170 157 265t298 95q100 0 186 -29.5t146 -87.5q78 -74 98.5 -170t20.5 -198v-668h-175v178q-59 -86 -137 -133q-104 -66 -268 -65q-170 0 -269.5 86 t-99.5 235zM272 305q0 -78 58.5 -125t156.5 -47q105 0 181 39q115 59 160.5 157.5t45.5 248.5l-368 -74q-127 -25 -187 -80q-47 -47 -47 -119zM361 1434q0 100 70.5 170.5t171.5 70.5q100 0 172.5 -69.5t72.5 -171.5q0 -100 -71.5 -172t-173.5 -72q-101 0 -171.5 72.5 t-70.5 171.5zM488 1438q0 -51 33.5 -86t81.5 -35q51 0 83.5 33.5t32.5 87.5q0 47 -31.5 79.5t-84.5 32.5q-49 0 -82 -32.5t-33 -79.5z" />
<glyph unicode="&#xe6;" horiz-adv-x="2064" d="M98 301q0 147 111 234q90 72 260 106l403 78q0 133 -69 203q-78 78 -209 77q-104 0 -181 -56t-98 -150h-174q29 170 157 265t298 95q100 0 186 -29.5t146 -87.5q35 -33 65 -90q74 98 182.5 152.5t245.5 54.5q145 0 270.5 -65.5t201 -191.5t75.5 -302v-62h-921 q4 -59 22 -112q43 -131 138.5 -209t215.5 -78q123 0 211 65.5t127 166.5h187q-55 -172 -188.5 -278.5t-334.5 -106.5q-158 0 -283.5 74.5t-195.5 205.5h-12q-61 -150 -195 -221q-111 -59 -272 -59q-170 0 -269.5 86t-99.5 235zM272 305q0 -78 58.5 -125t156.5 -47 q104 0 181 39q114 59 160 157.5t46 248.5l-368 -74q-127 -25 -187 -80q-47 -47 -47 -119zM1063 686h719q-4 61 -25 111q-43 96 -132 149t-200 53q-113 0 -197.5 -53t-131.5 -149q-20 -45 -33 -111z" />
<glyph unicode="&#xe7;" horiz-adv-x="1232" d="M98 571q0 166 70 299.5t194.5 208t284.5 74.5q190 0 322.5 -97.5t171.5 -262.5h-187q-33 94 -115.5 150t-191.5 56q-106 0 -191 -55t-134.5 -152.5t-49.5 -220.5q0 -127 48.5 -226t134.5 -155.5t192 -56.5q117 0 202 63.5t114 168.5h186q-37 -180 -173 -282.5 t-329 -102.5q-39 -43 -94 -82l14 -19q49 6 78 6q47 0 78 -12q121 -39 121 -147q0 -84 -69.5 -130.5t-182.5 -46.5q-96 0 -189 27v76q98 -37 181 -37q70 0 110.5 27.5t40.5 78.5q0 72 -75.5 99.5t-223.5 23.5l111 144q-133 23 -234.5 102.5t-158 204.5t-56.5 276z" />
<glyph unicode="&#xe8;" horiz-adv-x="1288" d="M98 563q0 158 65.5 292t189.5 216t292 82q145 0 270 -65.5t201 -191.5t76 -302v-62h-922q4 -59 23 -112q43 -131 138 -209t216 -78q123 0 211 65.5t127 166.5h186q-55 -172 -188 -278.5t-334 -106.5q-160 0 -285.5 75.5t-195.5 208.5t-70 299zM285 1563h213l239 -312 h-159zM287 686h719q-4 61 -25 111q-43 96 -132 149t-200 53q-113 0 -197.5 -53t-132.5 -149q-20 -45 -32 -111z" />
<glyph unicode="&#xe9;" horiz-adv-x="1288" d="M98 563q0 158 65.5 292t189.5 216t292 82q145 0 270 -65.5t201 -191.5t76 -302v-62h-922q4 -59 23 -112q43 -131 138 -209t216 -78q123 0 211 65.5t127 166.5h186q-55 -172 -188 -278.5t-334 -106.5q-160 0 -285.5 75.5t-195.5 208.5t-70 299zM287 686h719q-4 61 -25 111 q-43 96 -132 149t-200 53q-113 0 -197.5 -53t-132.5 -149q-20 -45 -32 -111zM549 1251l239 312h213l-293 -312h-159z" />
<glyph unicode="&#xea;" horiz-adv-x="1288" d="M98 563q0 158 65.5 292t189.5 216t292 82q145 0 270 -65.5t201 -191.5t76 -302v-62h-922q4 -59 23 -112q43 -131 138 -209t216 -78q123 0 211 65.5t127 166.5h186q-55 -172 -188 -278.5t-334 -106.5q-160 0 -285.5 75.5t-195.5 208.5t-70 299zM287 686h719q-4 61 -25 111 q-43 96 -132 149t-200 53q-113 0 -197.5 -53t-132.5 -149q-20 -45 -32 -111zM297 1266l332 348h29l331 -348h-200l-146 178l-145 -178h-201z" />
<glyph unicode="&#xeb;" horiz-adv-x="1288" d="M98 563q0 158 65.5 292t189.5 216t292 82q145 0 270 -65.5t201 -191.5t76 -302v-62h-922q4 -59 23 -112q43 -131 138 -209t216 -78q123 0 211 65.5t127 166.5h186q-55 -172 -188 -278.5t-334 -106.5q-160 0 -285.5 75.5t-195.5 208.5t-70 299zM287 686h719q-4 61 -25 111 q-43 96 -132 149t-200 53q-113 0 -197.5 -53t-132.5 -149q-20 -45 -32 -111zM305 1456q0 53 39 90t95 37q55 0 94 -37t39 -90t-39 -91t-94 -38q-56 0 -95 38t-39 91zM715 1456q0 53 39 90t94 37t94 -37t39 -90t-38.5 -91t-94.5 -38q-55 0 -94 38t-39 91z" />
<glyph unicode="&#xec;" horiz-adv-x="464" d="M-125 1563h213l239 -312h-159zM145 0v1133h174v-1133h-174z" />
<glyph unicode="&#xed;" horiz-adv-x="464" d="M140 1251l239 312h213l-293 -312h-159zM145 0v1133h174v-1133h-174z" />
<glyph unicode="&#xee;" horiz-adv-x="464" d="M-113 1266l332 348h29l331 -348h-200l-146 178l-145 -178h-201zM145 0v1133h174v-1133h-174z" />
<glyph unicode="&#xef;" horiz-adv-x="464" d="M-105 1456q0 53 39 90t95 37q55 0 94 -37t39 -90t-39 -91t-94 -38q-56 0 -95 38t-39 91zM145 0v1133h174v-1133h-174zM305 1456q0 53 39 90t94 37t94 -37t39 -90t-38.5 -91t-94.5 -38q-55 0 -94 38t-39 91z" />
<glyph unicode="&#xf0;" horiz-adv-x="1239" d="M66 506q0 147 61 261t173 177.5t259 63.5q119 0 222.5 -51.5t181.5 -149.5q-4 326 -125 487l-312 -178l-65 113l270 155q-82 43 -168 43q-109 0 -188 -51l-92 137q117 68 280 68q190 0 324 -106l153 88l66 -113l-127 -74q156 -219 156 -620q0 -356 -140.5 -565 t-427.5 -209q-145 0 -259.5 68.5t-178 188t-63.5 267.5zM240 508q0 -100 42 -185t116.5 -136.5t170.5 -51.5q103 0 184 48t126 134t45 191q0 96 -46.5 175t-125 125t-177.5 46q-98 0 -174.5 -45t-118.5 -124t-42 -177z" />
<glyph unicode="&#xf1;" horiz-adv-x="1179" d="M145 0v1133h174v-177q84 109 163 153t173 44q240 0 334 -178q35 -68 44 -138.5t9 -154.5v-682h-174v682q0 180 -65 254q-57 63 -174 63q-129 0 -207 -84q-55 -57 -79 -157.5t-24 -274.5v-483h-174zM221 1264q6 145 67.5 227t164.5 82q61 0 100 -26.5t84 -76.5 q33 -35 53.5 -50t46.5 -15q33 0 53.5 40t24.5 118h141q-10 -156 -62 -232t-159 -76q-67 0 -109 28t-87 77q-29 33 -49.5 48t-45.5 15q-76 0 -86 -159h-137z" />
<glyph unicode="&#xf2;" horiz-adv-x="1308" d="M98 571q0 166 71 299.5t197 208t285 74.5q160 0 287 -74.5t198.5 -208t71.5 -299.5q0 -170 -70.5 -304t-197.5 -210.5t-289 -76.5q-159 0 -285 75.5t-197 210.5t-71 305zM272 571q0 -125 49.5 -225t136.5 -156.5t193 -56.5q107 0 194 57.5t137 156.5t50 224 q0 119 -49 217.5t-136 154.5t-196 56q-106 0 -193 -55t-136.5 -153.5t-49.5 -219.5zM295 1563h213l239 -312h-159z" />
<glyph unicode="&#xf3;" horiz-adv-x="1308" d="M98 571q0 166 71 299.5t197 208t285 74.5q160 0 287 -74.5t198.5 -208t71.5 -299.5q0 -170 -70.5 -304t-197.5 -210.5t-289 -76.5q-159 0 -285 75.5t-197 210.5t-71 305zM272 571q0 -125 49.5 -225t136.5 -156.5t193 -56.5q107 0 194 57.5t137 156.5t50 224 q0 119 -49 217.5t-136 154.5t-196 56q-106 0 -193 -55t-136.5 -153.5t-49.5 -219.5zM559 1251l239 312h213l-293 -312h-159z" />
<glyph unicode="&#xf4;" horiz-adv-x="1308" d="M98 571q0 166 71 299.5t197 208t285 74.5q160 0 287 -74.5t198.5 -208t71.5 -299.5q0 -170 -70.5 -304t-197.5 -210.5t-289 -76.5q-159 0 -285 75.5t-197 210.5t-71 305zM272 571q0 -125 49.5 -225t136.5 -156.5t193 -56.5q107 0 194 57.5t137 156.5t50 224 q0 119 -49 217.5t-136 154.5t-196 56q-106 0 -193 -55t-136.5 -153.5t-49.5 -219.5zM307 1266l332 348h29l331 -348h-200l-146 178l-145 -178h-201z" />
<glyph unicode="&#xf5;" horiz-adv-x="1308" d="M98 571q0 166 71 299.5t197 208t285 74.5q160 0 287 -74.5t198.5 -208t71.5 -299.5q0 -170 -70.5 -304t-197.5 -210.5t-289 -76.5q-159 0 -285 75.5t-197 210.5t-71 305zM272 571q0 -125 49.5 -225t136.5 -156.5t193 -56.5q107 0 194 57.5t137 156.5t50 224 q0 119 -49 217.5t-136 154.5t-196 56q-106 0 -193 -55t-136.5 -153.5t-49.5 -219.5zM283 1264q6 145 67.5 227t164.5 82q61 0 100 -26.5t84 -76.5q33 -35 53.5 -50t46.5 -15q33 0 53.5 40t24.5 118h141q-10 -156 -62 -232t-159 -76q-67 0 -109 28t-87 77q-29 33 -49.5 48 t-45.5 15q-76 0 -86 -159h-137z" />
<glyph unicode="&#xf6;" horiz-adv-x="1308" d="M98 571q0 166 71 299.5t197 208t285 74.5q160 0 287 -74.5t198.5 -208t71.5 -299.5q0 -170 -70.5 -304t-197.5 -210.5t-289 -76.5q-159 0 -285 75.5t-197 210.5t-71 305zM272 571q0 -125 49.5 -225t136.5 -156.5t193 -56.5q107 0 194 57.5t137 156.5t50 224 q0 119 -49 217.5t-136 154.5t-196 56q-106 0 -193 -55t-136.5 -153.5t-49.5 -219.5zM315 1456q0 53 39 90t95 37q55 0 94 -37t39 -90t-39 -91t-94 -38q-56 0 -95 38t-39 91zM725 1456q0 53 39 90t94 37t94 -37t39 -90t-38.5 -91t-94.5 -38q-55 0 -94 38t-39 91z" />
<glyph unicode="&#xf7;" d="M227 623v145h852v-145h-852zM549 156v264h209v-264h-209zM549 952v260h209v-260h-209z" />
<glyph unicode="&#xf8;" horiz-adv-x="1308" d="M98 571q0 166 71 299.5t197 208t285 74.5q211 0 365 -131l80 80l92 -94l-84 -84q104 -154 104 -353q0 -170 -70.5 -304t-197.5 -210.5t-289 -76.5q-106 0 -198.5 33.5t-163.5 97.5l-80 -80l-92 92l86 86q-104 152 -105 362zM272 571q1 -131 56 -237l569 569 q-102 96 -246 96q-106 0 -193 -55t-136.5 -153.5t-49.5 -219.5zM408 229q102 -96 243 -96q107 0 194 57.5t137 156.5t50 224q0 123 -55 228z" />
<glyph unicode="&#xf9;" horiz-adv-x="1183" d="M141 451v682h174v-682q0 -180 66 -254q57 -63 174 -64q129 0 207 84q55 57 78.5 157.5t23.5 274.5v484h174v-1133h-174v176q-82 -104 -160.5 -150t-175.5 -46q-237 0 -333 178q-53 100 -54 293zM234 1563h213l239 -312h-159z" />
<glyph unicode="&#xfa;" horiz-adv-x="1183" d="M141 451v682h174v-682q0 -180 66 -254q57 -63 174 -64q129 0 207 84q55 57 78.5 157.5t23.5 274.5v484h174v-1133h-174v176q-82 -104 -160.5 -150t-175.5 -46q-237 0 -333 178q-53 100 -54 293zM498 1251l239 312h213l-293 -312h-159z" />
<glyph unicode="&#xfb;" horiz-adv-x="1183" d="M141 451v682h174v-682q0 -180 66 -254q57 -63 174 -64q129 0 207 84q55 57 78.5 157.5t23.5 274.5v484h174v-1133h-174v176q-82 -104 -160.5 -150t-175.5 -46q-237 0 -333 178q-53 100 -54 293zM246 1266l332 348h29l331 -348h-200l-146 178l-145 -178h-201z" />
<glyph unicode="&#xfc;" horiz-adv-x="1183" d="M141 451v682h174v-682q0 -180 66 -254q57 -63 174 -64q129 0 207 84q55 57 78.5 157.5t23.5 274.5v484h174v-1133h-174v176q-82 -104 -160.5 -150t-175.5 -46q-237 0 -333 178q-53 100 -54 293zM253 1456q0 53 39 90t95 37q55 0 94 -37t39 -90t-39 -91t-94 -38 q-56 0 -95 38t-39 91zM663 1456q0 53 39 90t94 37t94 -37t39 -90t-38.5 -91t-94.5 -38q-55 0 -94 38t-39 91z" />
<glyph unicode="&#xfd;" horiz-adv-x="1124" d="M37 1133h192l344 -879l320 879h188l-501 -1360q-45 -121 -102.5 -162t-164.5 -41h-168v160h107q51 0 77.5 7t47 31.5t41.5 79.5l61 168zM467 1251l239 312h213l-293 -312h-159z" />
<glyph unicode="&#xfe;" horiz-adv-x="1298" d="M147 -430v1993h175v-607q84 109 167.5 153t202.5 44q150 0 264.5 -73.5t177 -207t62.5 -305.5t-62.5 -306t-176 -207.5t-265.5 -73.5q-117 0 -200.5 43t-169.5 153v-606h-175zM315 567q0 -125 46.5 -223t128 -154.5t186.5 -56.5q104 0 183 56.5t121 154.5t42 223 q0 123 -42 221.5t-121 154.5t-183 56t-186 -55t-128.5 -154.5t-46.5 -222.5z" />
<glyph unicode="&#xff;" horiz-adv-x="1124" d="M37 1133h192l344 -879l320 879h188l-501 -1360q-45 -121 -102.5 -162t-164.5 -41h-168v160h107q51 0 77.5 7t47 31.5t41.5 79.5l61 168zM223 1456q0 53 39 90t95 37q55 0 94 -37t39 -90t-39 -91t-94 -38q-56 0 -95 38t-39 91zM633 1456q0 53 39 90t94 37t94 -37t39 -90 t-38.5 -91t-94.5 -38q-55 0 -94 38t-39 91z" />
<glyph unicode="&#x152;" horiz-adv-x="2465" d="M102 782q0 219 81 401.5t245 291t399 108.5q168 0 299 -62.5t240 -197.5v240h1010v-170h-822v-525h725v-168h-725v-530h822v-170h-1010v240q-115 -135 -246 -197.5t-293 -62.5q-235 0 -399 108.5t-245 291.5t-81 402zM291 782q0 -184 62.5 -327.5t183 -224t290.5 -80.5 q172 0 294 80.5t184.5 224t62.5 327.5t-62.5 326.5t-184.5 223.5t-294 81q-170 0 -290.5 -81t-183 -223t-62.5 -327z" />
<glyph unicode="&#x153;" horiz-adv-x="2226" d="M98 571q0 166 71 299.5t197 208t285 74.5q152 0 275 -68.5t196 -189.5q72 119 188.5 188.5t272.5 69.5q145 0 270 -65.5t201 -191.5t76 -302v-62h-922q4 -59 23 -112q43 -131 138 -209t216 -78q123 0 211 65.5t127 166.5h186q-55 -172 -188 -278.5t-334 -106.5 q-152 0 -273.5 68.5t-193.5 189.5q-72 -121 -194.5 -189.5t-274.5 -68.5q-160 0 -285.5 75.5t-196.5 210.5t-71 305zM272 571q0 -125 49.5 -225t136.5 -156.5t193 -56.5q107 0 194 57.5t137 156.5t50 224q0 119 -49 217.5t-136 154.5t-196 56q-106 0 -193 -55t-136.5 -153.5 t-49.5 -219.5zM1225 686h719q-4 61 -25 111q-43 96 -132 149t-200 53q-113 0 -197.5 -53t-132.5 -149q-20 -45 -32 -111z" />
<glyph unicode="&#x178;" horiz-adv-x="1380" d="M8 1563h219l461 -779l467 779h215l-579 -965v-598h-197v598zM365 1778q0 49 36 83.5t85 34.5q47 0 83 -34.5t36 -83.5q0 -47 -36 -82t-83 -35q-49 0 -85 34t-36 83zM775 1778q0 49 35.5 83.5t84.5 34.5q47 0 83 -34.5t36 -83.5q0 -47 -36 -82t-83 -35q-49 0 -84.5 34 t-35.5 83z" />
<glyph unicode="&#x2c6;" horiz-adv-x="749" d="M29 1266l332 348h29l331 -348h-200l-146 178l-145 -178h-201z" />
<glyph unicode="&#x2dc;" horiz-adv-x="792" d="M29 1264q6 145 67.5 227t164.5 82q61 0 100 -26.5t84 -76.5q33 -35 53.5 -50t46.5 -15q33 0 53.5 40t24.5 118h141q-10 -156 -62 -232t-159 -76q-67 0 -109 28t-87 77q-29 33 -49.5 48t-45.5 15q-76 0 -86 -159h-137z" />
<glyph unicode="&#x2000;" horiz-adv-x="1022" />
<glyph unicode="&#x2001;" horiz-adv-x="2044" />
<glyph unicode="&#x2002;" horiz-adv-x="1022" />
<glyph unicode="&#x2003;" horiz-adv-x="2044" />
<glyph unicode="&#x2004;" horiz-adv-x="681" />
<glyph unicode="&#x2005;" horiz-adv-x="511" />
<glyph unicode="&#x2006;" horiz-adv-x="340" />
<glyph unicode="&#x2007;" horiz-adv-x="340" />
<glyph unicode="&#x2008;" horiz-adv-x="255" />
<glyph unicode="&#x2009;" horiz-adv-x="408" />
<glyph unicode="&#x200a;" horiz-adv-x="113" />
<glyph unicode="&#x2010;" horiz-adv-x="704" d="M49 608v152h606v-152h-606z" />
<glyph unicode="&#x2011;" horiz-adv-x="704" d="M49 608v152h606v-152h-606z" />
<glyph unicode="&#x2012;" horiz-adv-x="704" d="M49 608v152h606v-152h-606z" />
<glyph unicode="&#x2013;" horiz-adv-x="1116" d="M45 618v132h1026v-132h-1026z" />
<glyph unicode="&#x2014;" horiz-adv-x="2265" d="M0 618v132h2265v-132h-2265z" />
<glyph unicode="&#x2018;" horiz-adv-x="589" d="M133 1247q0 125 75 221.5t224 112.5v-92q-94 -14 -145 -73.5t-51 -147.5q0 -31 6 -62q27 45 92 45q45 0 75.5 -31.5t30.5 -84.5q0 -55 -35.5 -90t-95.5 -35q-80 0 -128 65.5t-48 171.5z" />
<glyph unicode="&#x2019;" horiz-adv-x="591" d="M150 1458q0 55 35.5 90t95.5 35q80 0 128 -65.5t48 -171.5q0 -125 -75 -221.5t-224 -112.5v92q94 14 145 73.5t51 147.5q0 31 -6 61q-27 -45 -92 -45q-45 0 -75.5 32t-30.5 85z" />
<glyph unicode="&#x201a;" horiz-adv-x="471" d="M88 96q0 55 36 90t95 35q80 0 128 -65.5t48 -171.5q0 -125 -74.5 -221.5t-224.5 -112.5v92q94 14 145.5 73.5t51.5 147.5q0 31 -6 62q-27 -45 -92 -45q-45 0 -76 31.5t-31 84.5z" />
<glyph unicode="&#x201c;" horiz-adv-x="993" d="M133 1245q0 125 75 221.5t224 112.5v-92q-94 -14 -145 -73.5t-51 -147.5q0 -31 6 -62q27 45 92 45q45 0 75.5 -31.5t30.5 -84.5q0 -55 -35.5 -90t-95.5 -35q-80 0 -128 65.5t-48 171.5zM537 1245q0 125 74.5 221.5t224.5 112.5v-92q-94 -14 -145.5 -73.5t-51.5 -147.5 q0 -31 6 -62q27 45 92 45q45 0 76 -31.5t31 -84.5q0 -55 -36 -90t-95 -35q-80 0 -128 65.5t-48 171.5z" />
<glyph unicode="&#x201d;" horiz-adv-x="995" d="M150 1458q0 55 35.5 90t95.5 35q80 0 128 -65.5t48 -171.5q0 -125 -75 -221.5t-224 -112.5v92q94 14 145 73.5t51 147.5q0 31 -6 61q-27 -45 -92 -45q-45 0 -75.5 32t-30.5 85zM553 1458q0 55 35.5 90t95.5 35q80 0 128 -65.5t48 -171.5q0 -125 -75 -221.5t-224 -112.5 v92q94 14 145 73.5t51 147.5q0 31 -6 61q-27 -45 -92 -45q-45 0 -75.5 32t-30.5 85z" />
<glyph unicode="&#x201e;" horiz-adv-x="874" d="M89 96q0 55 35.5 90t95.5 35q80 0 128 -65.5t48 -171.5q0 -125 -75 -221.5t-224 -112.5v92q94 14 145 73.5t51 147.5q0 31 -6 61q-27 -45 -92 -45q-45 0 -75.5 32t-30.5 85zM492 96q0 55 35.5 90t95.5 35q80 0 128 -65.5t48 -171.5q0 -125 -75 -221.5t-224 -112.5v92 q94 14 145 73.5t51 147.5q0 31 -6 61q-27 -45 -92 -45q-45 0 -75.5 32t-30.5 85z" />
<glyph unicode="&#x2022;" horiz-adv-x="849" d="M162 532q0 72 35.5 132.5t96 95.5t130.5 35q72 0 132 -35t96 -95.5t36 -132.5t-36 -132t-96 -95t-132 -35q-70 0 -130.5 35t-96 95.5t-35.5 131.5z" />
<glyph unicode="&#x2026;" horiz-adv-x="1384" d="M115 100q0 49 36.5 85t88.5 36q47 0 81.5 -35.5t34.5 -85.5q0 -49 -34.5 -84.5t-81.5 -35.5q-52 0 -88.5 34.5t-36.5 85.5zM571 100q0 49 36 85t87 36q49 0 85 -35.5t36 -85.5q0 -49 -36 -84.5t-85 -35.5q-51 0 -87 35.5t-36 84.5zM1028 100q0 49 36 85t87 36 q47 0 83 -35.5t36 -85.5q0 -49 -35 -84.5t-84 -35.5q-51 0 -87 34.5t-36 85.5z" />
<glyph unicode="&#x202f;" horiz-adv-x="408" />
<glyph unicode="&#x2039;" horiz-adv-x="626" d="M43 565l444 381v-153l-266 -230l266 -225v-154z" />
<glyph unicode="&#x203a;" horiz-adv-x="626" d="M139 184v154l267 225l-267 230v153l445 -381z" />
<glyph unicode="&#x205f;" horiz-adv-x="511" />
<glyph unicode="&#x20ac;" d="M127 559v123h152q-4 66 -5 100q0 55 7 111h-154v123h172q59 256 236.5 411.5t463.5 155.5q82 0 152 -12v-176q-72 18 -152 18q-194 0 -325 -106.5t-182 -290.5h569v-123h-592q-6 -51 -6 -111q0 -35 4 -100h594v-123h-572q49 -190 180.5 -299.5t329.5 -109.5q82 0 152 18 v-176q-70 -12 -152 -12q-289 0 -468 159.5t-234 419.5h-170z" />
<glyph unicode="&#x2122;" horiz-adv-x="1671" d="M55 1477v86h625v-86h-266v-697h-95v697h-264zM776 780v783h168l211 -666l209 666h170v-783h-94v725l-238 -725h-94l-238 721v-721h-94z" />
<glyph unicode="&#x25fc;" horiz-adv-x="1136" d="M0 0v1137h1137v-1137h-1137z" />
</font>
</defs>
</svg>
