<svg xmlns="http://www.w3.org/2000/svg" viewBox="0 0 2318.2 306.8" style="enable-background:new 0 0 2318.2 306.8" xml:space="preserve"><style>.st0{fill:#fff}.st1{fill:none}</style><path class="st0" d="M1819.1 286.6c-6.3 12.9-16.7 6.3-25.3 6.6-7.8.3-15.6-1.2-23.5-1.7a312 312 0 0 0-21.6-.9c-13.9-.1-27.8.1-41.7.1l-28.8-.2c-11 0-22 .5-32.9.4-8-.1-16-1-24-1.4-2-.1-3.9.6-5.9.6-7.9-.1-15.7-.4-23.6-.4-5.5 0-11.1.4-16.6.3-8.2-.1-16.5-.6-24.7-.5-9.6.1-19.1-1.9-29-.6-7.7 1-15.7-.7-23.5-1.1-.8 0-1.6-.4-2.4-.4-11.6.2-23.3.5-34.9.5-4.4 0-8.8-1.5-13.2-1.5-8 0-16 .9-24 .9-10.3-.1-20.6-.8-30.8-1.2-8.6-.3-17.2-.3-25.8-.7l-37.8-2c-11.2-.5-22.4-.7-33.6-1.3-3-.2-5.9-1.7-8.9-1.9-12.1-.8-24.2-1.1-36.2-2.2-11.3-1-22.8-2.2-33.8-4.7-7.2-1.6-14.4-2.1-21.6-2.6-6.3-.5-12.5-2.5-18.8-3.4a682 682 0 0 0-28.7-3.8c-10.1-1.1-20.2-2.3-30.4-2.8-6-.3-12 .6-18 .8-2.6.1-5.3-.3-7.9 0-10.7 1.1-21.3 2.5-32 3.6-5.5.6-11.1.6-16.6 1.5-11.9 2-23.6 4.5-35.5 6.5a472.2 472.2 0 0 1-33.5 4.4c-11.5 1-23 1.3-34.6 1.9-12.9.6-26 2.6-38.8 1.2-11.8-1.3-22.9 2.5-34.5 1.2-8.3-.9-16.9.4-25.3 1-3.2.2-6.3 1.8-9.5 2.1-7.1.7-14.3.8-21.5 1.4-5.4.4-10.8 1-16.1 2-6.1 1.1-12 2.9-18.1 3.8-5.5.8-11 .8-16.6 1.2-7.6.5-15.2.7-22.7 1.7-11.3 1.5-22.5 4-33.8 5.5-7.4 1-15 .7-22.5 1.2-5.2.3-10.4.4-15.4 1.6-5.2 1.3-10.2 2-15.4.6-1.1-.3-2.5.2-3.7.7-2.8 1.2-5 1.4-8.3.4-4.1-1.2-9 0-13.5.7-6.5 1.1-12.5 2.1-18.7-2.2-6.5-4.5-10.2-10.4-8.3-16.5 2.3-7.7 9-11.9 17-11.8 4.4.1 8.8-1.2 13.2-1.6 9.1-1 18.1-2.1 27.2-2.8 10.9-.8 21.8-.8 32.6-2 20-2.3 39.9-5.4 59.8-8.1 2.9-.4 5.9-.4 9.7-.6 0 0 7.2-.2 9.9.3s12.7-1.9 19.9-3.7c14.8-1.8 28.4-3.7 42-5.2 13.7-1.5 27.5-2.5 42.5-3.9.3 0 3.5.6 6.2.3 2.8-.4 5.6 0 5.6 0 4.6-.5 9.6-1.5 14.7-1.6 13.1-.3 26.1-.1 39.2-.3 4.8-.1 9.5-.9 14.2-1.2l26.6-1.8.2-1.8s12.2.8 23-3l.5 1.5 49.9-8.4s9-1.1 20.5-.5c11.2.6 18.9-.5 23.8-1.2 4.8-.7 22.9-2.5 22.9-2.5l24.2 1.8s17 2.6 20.9 4.8c3.9 2.1 22.2 5.1 26.1 6 5.5 1.2 19.1 2.3 24.6 2.3a308.9 308.9 0 0 1 24.3 1.5l16.2 1.8 23.7 2c12.9 1 25.8 2 38.7 2.8 5.7.4 11.4.1 17.1.3 13.7.6 27.3 1.4 41 1.9 15.8.5 31.6.5 47.4 1.1 7.9.3 15.8 1.2 23.6 1.8h2l40.5-.1c10.9 0 21.8.1 32.8.4 12.6.3 25.3.9 37.9 1.3l.5-1.3s11.3 5 21.6 3.5l1.9-.3.5-.1c6.9-1.1 6-1.6 6.9-1.2l.3.1c1.7.9 14-.1 19.1.1 2.3.4 5.9.1 8.2.1 5.6.2 11.2-.2 16.8-.1 7.6.1 15.2.5 22.8.8.5 0 1 .4 1.4.3 8.9-.4 17.8-1.1 26.7-1.1 11.1 0 22.2.6 33.2.9 3.1.1 6.3-.5 9.4-.4 19.5.6 38.9 1.2 58.3 2 8.3.3 16.7.8 25 1.4 1.4.1 3.2 1.2 3.9 2.4 2.3 3.8 4.5 7.8 6.2 11.9 1.5 4.1-.1 7-2 10.8z" id="Layer_2"/><g id="Layer_1"><path class="st1" d="M294.1 70.1c-2.9 6.2-5.1 12.4-8.5 17.6a71 71 0 0 1-17.9 18.8c-7.4 5.3-13.5 12.4-20.5 18.3-2.3 1.9-5.7 2.4-8.4 3.9-1.6.9-2.9 2.5-4.4 3.8-1.2 1.1-2.4 2.7-3.8 3-10 1.7-17.2 8.5-25.5 13.3l-7.7 4-1.2-.9c1.6-3.5 2.8-7.2 4.8-10.4 7.1-11.3 13.9-22.7 23.7-32.1 5.8-5.6 10.1-12.7 16-18.1a110 110 0 0 1 39.2-22c4.1-1.2 8.9.4 14.2.8zM2183 142.2c-.1 1.6-.6 3.3-.3 4.9.9 5.2-2.8 6.9-6.3 6.9-8.3 0-16.7.4-24.4-4-6.7-3.8-7.7-13-2.7-18.8 7.2-8.3 15.8-9.1 25.4-6.6 2.1.6 4.7 2.4 5.5 4.3 1.7 4.1 2.5 8.7 3.6 13l-.8.3zM2168.5 187.7c-2.2 3.3-4.7 7.8-7.7 11.8-3.3 4.3-6.8 8.5-10.7 12.3-5.8 5.6-11.6 11.6-18.2 16-5.8 3.9-12.7 6-19.3 8.5-3.4 1.3-5.7-.6-6.1-3.8-.8-7.5-1.5-15-1.7-22.5a86.1 86.1 0 0 1 10.1-38.4c1.3-2.9 1.7-6.2 3.4-8.8 2.5-3.8 5.8-7.2 8.9-10.8 6.3 7.7 11.3 15.6 18 21.4 6.7 5.7 15.1 9.4 23.3 14.3z"/><path class="st1" d="M294.1 70.1c-2.9 6.2-5.1 12.4-8.5 17.6a71 71 0 0 1-17.9 18.8c-7.4 5.3-13.5 12.4-20.5 18.3-2.3 1.9-5.7 2.4-8.4 3.9-1.6.9-2.9 2.5-4.4 3.8-1.2 1.1-2.4 2.7-3.8 3-10 1.7-17.2 8.5-25.5 13.3l-7.7 4-1.2-.9c1.6-3.5 2.8-7.2 4.8-10.4 7.1-11.3 13.9-22.7 23.7-32.1 5.8-5.6 10.1-12.7 16-18.1a110 110 0 0 1 39.2-22c4.1-1.2 8.9.4 14.2.8zM2168.5 187.7c-2.2 3.3-4.7 7.8-7.7 11.8-3.3 4.3-6.8 8.5-10.7 12.3-5.8 5.6-11.6 11.6-18.2 16-5.8 3.9-12.7 6-19.3 8.5-3.4 1.3-5.7-.6-6.1-3.8-.8-7.5-1.5-15-1.7-22.5a86.1 86.1 0 0 1 10.1-38.4c1.3-2.9 1.7-6.2 3.4-8.8 2.5-3.8 5.8-7.2 8.9-10.8 6.3 7.7 11.3 15.6 18 21.4 6.7 5.7 15.1 9.4 23.3 14.3zM2183 142.2c-.1 1.6-.6 3.3-.3 4.9.9 5.2-2.8 6.9-6.3 6.9-8.3 0-16.7.4-24.4-4-6.7-3.8-7.7-13-2.7-18.8 7.2-8.3 15.8-9.1 25.4-6.6 2.1.6 4.7 2.4 5.5 4.3 1.7 4.1 2.5 8.7 3.6 13l-.8.3z"/><path class="st1" d="M294.1 70.1c-2.9 6.2-5.1 12.4-8.5 17.6a71 71 0 0 1-17.9 18.8c-7.4 5.3-13.5 12.4-20.5 18.3-2.3 1.9-5.7 2.4-8.4 3.9-1.6.9-2.9 2.5-4.4 3.8-1.2 1.1-2.4 2.7-3.8 3-10 1.7-17.2 8.5-25.5 13.3l-7.7 4-1.2-.9c1.6-3.5 2.8-7.2 4.8-10.4 7.1-11.3 13.9-22.7 23.7-32.1 5.8-5.6 10.1-12.7 16-18.1a110 110 0 0 1 39.2-22c4.1-1.2 8.9.4 14.2.8zM2183 142.2c-.1 1.6-.6 3.3-.3 4.9.9 5.2-2.8 6.9-6.3 6.9-8.3 0-16.7.4-24.4-4-6.7-3.8-7.7-13-2.7-18.8 7.2-8.3 15.8-9.1 25.4-6.6 2.1.6 4.7 2.4 5.5 4.3 1.7 4.1 2.5 8.7 3.6 13l-.8.3zM2168.5 187.7c-2.2 3.3-4.7 7.8-7.7 11.8-3.3 4.3-6.8 8.5-10.7 12.3-5.8 5.6-11.6 11.6-18.2 16-5.8 3.9-12.7 6-19.3 8.5-3.4 1.3-5.7-.6-6.1-3.8-.8-7.5-1.5-15-1.7-22.5a86.1 86.1 0 0 1 10.1-38.4c1.3-2.9 1.7-6.2 3.4-8.8 2.5-3.8 5.8-7.2 8.9-10.8 6.3 7.7 11.3 15.6 18 21.4 6.7 5.7 15.1 9.4 23.3 14.3z"/><path class="st1" d="M294.1 70.1c-2.9 6.2-5.1 12.4-8.5 17.6a71 71 0 0 1-17.9 18.8c-7.4 5.3-13.5 12.4-20.5 18.3-2.3 1.9-5.7 2.4-8.4 3.9-1.6.9-2.9 2.5-4.4 3.8-1.2 1.1-2.4 2.7-3.8 3-10 1.7-17.2 8.5-25.5 13.3l-7.7 4-1.2-.9c1.6-3.5 2.8-7.2 4.8-10.4 7.1-11.3 13.9-22.7 23.7-32.1 5.8-5.6 10.1-12.7 16-18.1a110 110 0 0 1 39.2-22c4.1-1.2 8.9.4 14.2.8zM2183 142.2c-.1 1.6-.6 3.3-.3 4.9.9 5.2-2.8 6.9-6.3 6.9-8.3 0-16.7.4-24.4-4-6.7-3.8-7.7-13-2.7-18.8 7.2-8.3 15.8-9.1 25.4-6.6 2.1.6 4.7 2.4 5.5 4.3 1.7 4.1 2.5 8.7 3.6 13l-.8.3zM2168.5 187.7c-2.2 3.3-4.7 7.8-7.7 11.8-3.3 4.3-6.8 8.5-10.7 12.3-5.8 5.6-11.6 11.6-18.2 16-5.8 3.9-12.7 6-19.3 8.5-3.4 1.3-5.7-.6-6.1-3.8-.8-7.5-1.5-15-1.7-22.5a86.1 86.1 0 0 1 10.1-38.4c1.3-2.9 1.7-6.2 3.4-8.8 2.5-3.8 5.8-7.2 8.9-10.8 6.3 7.7 11.3 15.6 18 21.4 6.7 5.7 15.1 9.4 23.3 14.3z"/><path class="st0" d="M1284.1 200.8c-3.8-4.8-7.9-9.3-12.3-13.4-1-1-4.1-1-5.6-.2-6.5 3.2-12.7 7-19 10.4l-36.3 19.7c-.7.4-1.6.3-2.4.5-3.8.8-7.5 1.9-11.3 2.5-3.1.5-6.2.6-9.3.7-5.2.2-10.5-.2-15.5.7-4.5.9-6.8.6-6.8-3.9 0-7.5-.1-15.3 1.7-22.6 3.8-16.2 8.5-32.2 13.4-48.1 2.2-7.2 6.2-13.5 6.8-21.6.4-6.6-1.8-10.2-6.2-13.7-1-.8-2.7-1.7-2.8-2.6-.6-7.7-6.5-11.2-11.7-15.2-7.7-5.8-16-11-26.1-9.1-5.8 1.1-11.9 1.6-17.6 2.7-5.7 1.1-10.1 4.6-15.6 5.9-5.6 1.3-10.7 5.7-15.5 9.3-4.9 3.6-9.3 8-13.9 12-10.2 9.1-20.7 18-30.6 27.5-5.9 5.7-10.7 12.6-16.3 18.6-5.6 6-11.7 11.5-17.5 17.4-1.3 1.4-2.1 3.3-3.3 4.8-2.8 3.5-5.4 7.3-8.7 10.1-4.6 3.9-9.9 7.1-14.8 10.7-2.2 1.6-4.2 3.5-7.4 6.1 1-9.5 1.8-17.6 2.8-25.7 2.1-16.5 4.5-33 6.4-49.6.7-6.1.9-12.5.1-18.6-1.6-12.4-17.8-20-26.9-19.6a17 17 0 0 0-9.3 4c-5.7 5-10.8 10.7-16 16.3-5.9 6.3-12 12.5-17.4 19.3-10.1 12.7-19.8 25.8-30 39.2.2-1.5.2-2.7.5-3.8 2.4-11.8 5.1-23.6 7.3-35.4 1.4-7.7 2.6-15.5 3.1-23.3.3-5.3 0-11-1.4-16.1-2.9-10.7-12.3-14.3-21.6-17.1-2.5-.8-6.2-.2-8.3 1.3-6.5 4.7-12.4 10.2-18.5 15.4-.4.3-.6.7-.9 1.1-6.7 9-13.5 17.9-20 27-5.9 8.3-11.5 16.8-17.3 25.1l-9.4 13.3c1.5-8.5 2.3-16.1 4.1-23.4 3.7-15 4.5-30.1 4.1-45.4-.1-5.3-.1-11-1.9-15.8-4.7-12.2-16.1-16.1-27.4-19.4-2.5-.7-6.5.3-8.7 2a145 145 0 0 0-32.4 29.7c-9.2 12.5-19.1 24.6-28.7 36.9l-26.3 33.7c-4 5.2-7.3 11-11.5 16-5 6-10.9 11.2-16 17.2a57.7 57.7 0 0 1-17.3 15.2c.5-2.5 1.5-4.5 1.3-6.4-1.4-15.5 5-29.5 8.2-44.2 1.6-7.1 3.8-14 5.8-21l4.5-16.1c.4-1.6.7-3.2.7-4.9-.2-4.4-1.4-9-.7-13.2.9-6-1.9-9.9-6.4-12.3-5.6-3.1-11.8-5.4-17.9-7.4-1.8-.6-4.9 0-6.3 1.2a397.7 397.7 0 0 0-22.4 20.7c-6.7 6.8-12.9 14.2-19.2 21.5-8.6 10-17 20.1-25.4 30.3-5.3 6.4-10.3 13.1-15.5 19.7a5.1 5.1 0 0 1-.8-3.5c1.5-9.3 3.7-18.5 4.5-27.9.8-9.4.2-18.9.1-28.4-.3-19.9-15.3-29.5-33.2-31.6-2.5-.3-5.4.2-7.5 1.4a345 345 0 0 0-21.2 12.4c-2 1.3-3.4 3.5-5.1 5.4l-11.5 12.4c-4.8 5.2-9.7 10.3-14.3 15.7-5.5 6.4-10.6 13.1-15.8 19.7l-1.4-.9c-.1-.9-.5-2-.1-2.7 2.6-6.2 5.1-12.5 8.1-18.5 4.3-8.4 8.6-16.1 8.6-26.5 0-8.7-3.8-11.9-10.1-14.9l-1.8-.8c-14-5.9-13-4.7-22.1 5.4-3.4 3.8-7 7.5-10.6 11.2-2.7 2.7-5.8 5-8.4 7.8-2.6 2.8-4.2 6.8-7.3 8.6-5.2 3-9.7 6.5-13.3 11.3-1.9 2.4-4.7 4.2-7.2 6.1-2.3 1.7-5.1 2.8-7.2 4.7-9.1 7.9-17.8 16.3-27.1 23.9-6.8 5.6-14.4 10.3-21.8 15.2-11.7 7.8-22.8 16.7-35.4 22.5-7.3 3.4-14.5 8.5-23.2 9.1-2.5.2-4.8 3-7.4 3.8-4.2 1.3-8.6 1.8-12.9 2.8-4.8 1.2-9.5 3.2-14.4 3.6-6 .4-12.2-.7-18.3-.7a23.9 23.9 0 0 1-23.3-19.2c-.6-3.5 1.7-6 5.2-5.6.9.1 2 .3 2.8-.1l17.4-8.8c6.8-3.5 13.8-6.7 20.3-10.6 5.7-3.4 12.2-5.7 16.1-11.7 1.1-1.7 3.7-2.6 5.6-3.7 2.4-1.4 5-2.5 7.2-4.1 3.8-2.8 6.9-7.2 11.1-8.5 7.8-2.4 12.5-8.5 17.9-13.4 7.7-7 13.9-15.5 20.8-23.3 9.2-10.4 11.8-23.3 13.6-36.4 1.5-10.3-2.5-19.1-9.5-26.8-7.2-7.9-14.3-15.8-25.5-17.9-3.8-.7-7.8-2.1-11.6-1.8-6.5.5-13 1.5-19.2 3.6-5.3 1.8-9.8 5.9-15 7.9-9.9 3.8-16.6 11.5-24.2 18.2-5 4.4-10.5 8.2-15.1 12.9-3.9 4-6.9 8.9-10.3 13.4l-5.3 6.5c-.9 1.1-2.2 2-2.9 3.2-2.4 4.2-4.9 8.4-7 12.8a3281 3281 0 0 0-17.7 38.4c-.5 1.2-.7 2.6-.9 3.9l-3.2 18.9a3 3 0 0 1-1.4 1.9c-5 2.5-9.8 5.3-15 7.2-9.9 3.5-20.7 5.2-29.7 10.1-9.2 5.1-19.6 4-28.7 8.4-5 2.4-10.7 3.3-16.2 4.6-7 1.6-14.1 3-21.2 4.4-1.1.2-2.5 0-3.4.5-9 4.8-18.9 4.9-28.6 6.3-8.5 1.2-12.8 7.1-11.6 15.4 1.3 8.6 7.7 12.3 13.4 16.8 1.9 1.5 4.5 3.2 6.6 3 6.7-.6 13.4-2 20.1-3.1 4.2-.7 8.3-1.6 12.5-2.2 2.8-.4 5.7-.2 8.5-.9 5.2-1.3 10.3-3.2 15.5-4.5 4.5-1.1 9.3.3 13.5-3.2 2.4-1.9 6.5-2.8 9.6-2.5 4 .4 7-.7 10.2-2.8 2.6-1.7 5.7-3.8 8.5-3.8 5.7.1 10-3 14.8-5 1.2-.5 2.6-.4 3.8-.8 2.5-.8 5-1.5 7.4-2.6 4.6-2.2 9.1-4.7 13.8-6.7 1-.4 3.4.5 3.8 1.4a76.8 76.8 0 0 0 20.5 26.7 64 64 0 0 0 14.7 10.8c5.2 2.4 9.1 9 16.3 6.4.5-.2 1.4.9 2.2 1 4.6 1.1 9.2 2.7 13.9 2.9 4.2.1 8.4-1.4 12.6-2.1l21.5-2.9c5.1-.7 8.2-5.8 14.5-5.2 4.2.4 8.1-4.3 13.5-5.5 6.8-1.5 13.6-6.1 20.1-9.7 10.9-5.9 20.7-13.9 31.6-20a87.4 87.4 0 0 0 33-30.3c3.5-5.7 9.4-9.9 14.2-14.8l1.8 1.2-2.5 5c-1.1 2.2-2.2 4.3-3.1 6.6l-4.2 9.9c-1.1 2.4-2.5 4.6-3.4 7-3.2 8-6.3 16.1-9.3 24.1a84 84 0 0 0-2.1 6.6c-.8 3.2-1 6.7-2.4 9.6-5.6 12.2 1.5 21.8 8.8 27.3 4.8 3.6 10.9 5.5 16.7 7.5 3.5 1.2 7.4.7 10.1-2.8 3.5-4.4 7.3-8.6 10.6-13.1 8.1-11.1 16.1-22.4 24.1-33.6 5.3-7.4 10.3-15 15.6-22.4 7.5-10.5 15-21.1 23-31.3 5.9-7.6 12.4-14.7 18.7-22 2.8-3.2 5.3-6.7 8.4-9.5 4.9-4.5 10.3-8.5 15.4-12.7l1.5.6-4.3 36.2c-1.2 9.5-3.2 18.9-4 28.4-.7 8.4-.2 16.8-.5 25.3-.3 9.2 5.1 15.1 11.8 20 3.7 2.7 8.2 4.4 12.5 6 2.3.9 6.1 1.8 7.4.6a124 124 0 0 0 16.3-16.9c6.4-8.3 11.5-17.7 17.8-26.1 10.8-14.5 22-28.6 33.1-42.8 1.4-1.8 3-3.5 4.6-5.2l1.7.7-3.5 17.5c-1.1 6-2.3 12-3 18-.3 2.9.7 5.9.5 8.9a32.8 32.8 0 0 0 6.5 23.1 58.6 58.6 0 0 0 28.8 19.5c3.4 1.3 8.3.8 11.8-.6a52.8 52.8 0 0 0 14.4-9c8.9-7.7 17.8-15.5 25.6-24.3 3.6-4.2 6.2-9.3 10.4-13.4 7-6.8 11.1-16.1 17.7-23.6 11.8-13.5 21.7-28.5 32.7-42.7 6.8-8.7 14.3-16.8 21.5-25.2.3-.3.9-.2 1.7-.5-.9 6.6-1.1 13.1-2.8 19.2-2.6 9.5-2.3 19.5-6.8 28.7-2.8 5.8-.5 12.7-2.9 19.1-2.8 7.5-3.2 15.9-4.6 24-1 6.2-1.7 12.5-2.7 18.7-.3 1.8-1.1 3.4-1.6 5.2-1.4 5.1-2.9 10.1-4.2 15.2-1 3.7-1.3 7.7-2.8 11.2-1.6 3.7-1.8 6.7.6 9.9l.1.2c1.3 1.6 2 3.6 3.3 6 0 0 2.7 3.5 5.4 4s12.8 1.4 15.5 0a27 27 0 0 0 8.9-7.4l.1-.2 3.8-6.7c21.9-38 45.5-73.9 71.1-108.4l1.2.6c-1.2 5.8-2.6 11.5-3.5 17.3-1.2 7.5-2.1 15-3.2 22.4-.8 5.5-2 11-2.6 16.5-1.2 9.9-3.2 19.8-2.7 29.6.4 6.5 4.9 12.5 11.7 15.5l8.6 4.3c.3.2 3.8 2.4 6.5 2.1 2.8-.4 5.3-1.8 5.3-1.8l12.1-17.6c4.6-6.4 9.5-12.7 14.2-19 1.3-1.7 2.9-3.3 3.9-5.2 8-16.4 20.8-29.3 31.4-43.8 2.8-3.8 5.9-7.5 9-11.1.6-.7 1.5-1 2.9-1.8-.8 4.5-1.7 8.3-2.2 12.2-1.4 11.4-2.7 22.9-3.8 34.3a45.3 45.3 0 0 0 10.6 34.2c1.8 2.2 4.6 3.7 7.1 5.3 3.1 2 6.4 3.9 9.6 5.8 0 0 12.2.8 23-3l8.5-4.5c.6-.3 1.3-.6 1.7-1 4.1-4.6 8-9.5 12.4-13.8 4-3.8 8.9-6.9 13.2-10.4 1.6-1.3 2.9-3.1 4.3-4.7 2.1-2.3 4.2-4.7 7-6.7-3.7 11.8-5 23.1 3.2 34.3 0 0 4.6 8.1 16 10a62.2 62.2 0 0 0 30-2.6l21.2-11.6 16.7-17.9 7.4 19.7s3.6 11 7.5 13.2c3.9 2.2 11.7 7.1 15.4 7.1 3.7 0 15.9 2.5 28 .7 7.9-1.1 16.7-1.8 21.9-2.6a191.9 191.9 0 0 0 22.7-5.8c5.4-2.6 10.9-4.9 16.2-7.8 3.5-2 6.4-5 9.9-7.1 3.1-2 6.8-3.1 9.9-5.1 4.6-3 10.8-4.2 10.7-12.2-.1-2.8 2.3-6.1.2-8.8zM200.9 141.4c7.1-11.3 13.9-22.7 23.7-32.1 5.8-5.5 10.1-12.7 16-18.1a110 110 0 0 1 39.2-22.1c4.1-1.1 8.9.4 14.2.9-2.9 6.2-5.1 12.4-8.5 17.6a71 71 0 0 1-17.9 18.8c-7.4 5.3-13.5 12.4-20.5 18.3-2.3 1.9-5.7 2.4-8.4 3.9-1.6.9-2.9 2.5-4.4 3.8-1.2 1.1-2.4 2.7-3.8 3-10 1.7-17.2 8.5-25.5 13.3l-7.7 4-1.2-.9c1.6-3.5 2.8-7.2 4.8-10.4zm936.8.8-6.2 9.5c-4.8 7.1-9.4 14.3-14.7 21.1a359.1 359.1 0 0 1-21.1 25.1c-5.2 5.6-11.6 10.1-17.4 15.1l-1-.8c5.7-13 10.6-26.4 17.3-38.9 4.6-8.5 12.1-15.4 17.5-23.6 5.9-9 14-15.4 22.5-21.5 5.2-3.7 11.2-6.2 16.9-9.3l1.4 1.4-5.3 7.5-9.9 14.4z"/><path class="st1" d="M2168.5 187.7c-2.2 3.3-4.7 7.8-7.7 11.8-3.3 4.3-6.8 8.5-10.7 12.3-5.8 5.6-11.6 11.6-18.2 16-5.8 3.9-12.7 6-19.3 8.5-3.4 1.3-5.7-.6-6.1-3.8-.8-7.5-1.5-15-1.7-22.5a86.1 86.1 0 0 1 10.1-38.4c1.3-2.9 1.7-6.2 3.4-8.8 2.5-3.8 5.8-7.2 8.9-10.8 6.3 7.7 11.3 15.6 18 21.4 6.7 5.7 15.1 9.4 23.3 14.3zM2183 142.2c-.1 1.6-.6 3.3-.3 4.9.9 5.2-2.8 6.9-6.3 6.9-8.3 0-16.7.4-24.4-4-6.7-3.8-7.7-13-2.7-18.8 7.2-8.3 15.8-9.1 25.4-6.6 2.1.6 4.7 2.4 5.5 4.3 1.7 4.1 2.5 8.7 3.6 13l-.8.3z"/><path class="st0" d="M2313.8 90.6c-7-7.1-10.3-8-17.3-3.8-5.3 3.2-10.1 7.2-15.2 10.8l-4.9 3.5-32.5 22.8c-2.2 1.5-4.6 2.6-6.9 4-7.9 4.8-15.7 9.8-23.7 14.5-2 1.2-4.5 1.5-6.8 2.3l-1.2-3.8c-.2-.8-.1-1.7-.2-2.5a58.4 58.4 0 0 0-33.5-44.9c-7.8-3.8-17-4.4-25.6-6.4-.6-.1-1.4.7-2.2 1-8.5 3-14.6 9.2-21.2 15A86.7 86.7 0 0 0 2102 130c-.7 1.4-1.8 2.7-3 3.8-4 4.1-8.3 8-12.2 12.2-4.5 4.8-8.6 9.9-13.1 14.7-3.6 3.8-7.5 7.4-11.3 11-7 6.7-14.1 13.4-21.2 19.9-2.7 2.4-5.8 4.4-8.4 6.8a65.9 65.9 0 0 1-33.9 17.2c-3.5.6-7.4-.8-8.8-5a60.7 60.7 0 0 1-2.7-30.7c1.8-9.4 4.9-18.5 7.6-27.7 1.8-6.2 3.6-12.4 6.1-18.3 5-11.3 10.4-22.5 16.1-33.6 1.8-3.5 4.6-8.5 7.6-9.1 8.1-1.6 16.6-1.3 25-1.5 3.4-.1 7 1.2 10.4 1 9.8-.7 19.6-2 29.3-2.9 2.5-.2 5.1.8 7.6.7 8.8-.5 17.5-1.1 26.2-1.9a8.3 8.3 0 0 0 4.3-2.1c3.5-3 5.6-14.4 2.7-17.9-4.5-5.4-9.8-10.3-14.8-15.2a4.1 4.1 0 0 0-3.2-1c-7.5 1.5-15 2.3-22.8 1.9-8.6-.4-16.9 3.3-25.8 1.9-5.2-.8-10.6-.1-16.9-.1 1.1-2.3 1.7-3.3 2.1-4.4 3.7-8.8 7.7-17.6 10.8-26.6a12 12 0 0 0-1.6-9.6c-3.9-4.9-8.8-9-13.7-12.9-1.3-1-4.8-1.1-6.1-.1-4 3-7.7 6.5-11.2 10.1-5.2 5.5-10.7 11-15 17.2-5.1 7.3-7.3 16.5-14.9 22.3a9.3 9.3 0 0 0-2.6 3.6c-1.7 4.6-5.7 4.4-9.4 4.9-1.3.2-2.6-.2-3.9-.1-11.6 1-23.1 2.2-34.7 3.1-4.8.4-9.8 0-14.6.4-10.5.8-20.9 1.9-31.4 2.8-5.6.5-9.9 3.7-9 7.8 1.2 5.2 3 10.5 5.6 15.1 2.1 3.8 5.8 6.8 8.6 10.3 2.3 3 4.7 3 8.3 2.2 5.9-1.3 12.1-1.6 18.2-2.2a425 425 0 0 1 30-1.9c-1.5 3-2.6 5.5-3.9 7.7a51.3 51.3 0 0 1-4.4 6c-.8 1-2 1.8-2.8 2.8l-13.5 15.5c-5.8 6.5-11.5 12.9-17.4 19.2-7.4 8-14.7 16.1-22.4 23.8-5.5 5.5-11.8 10.1-17.1 15.7-5 5.2-11.5 6.3-17.9 9.5-.6-2.5-1.5-4.3-1.4-6 .6-19.7 1.5-39.5 1.9-59.2.1-7-.1-14.4-2.1-21-2.3-7.8-9.4-12.2-16.3-16-3.3-1.8-6.5-4.3-10.5-1.1-.8.6-2.8-.4-4.2-.7-6.9-1.4-13.7-3.3-20.7-4-5.7-.5-11.4.7-17.2.7-6.8 0-13.6-1-20.4-.5-6.4.4-12.8 1.8-19 3.4-7.6 2-15.1 4.8-22.5 7.4-7.1 2.5-14.5 4.5-21.2 7.8-9.3 4.6-18 10.3-27.2 15.2-6 3.2-12.4 5.9-18.7 8.8l-5.1 2.4-.9-3.8-4.4-27.8a42.1 42.1 0 0 0-18.2-29.2c-9.6-6.5-17.5-9-26.1-2.6-5.4 4-11.7 6.7-17.3 10.4-7.2 4.8-14 10.1-21.2 14.9-4 2.6-8.6 4.3-12.6 6.8-5.6 3.5-10.8 7.7-16.5 11.2-18.7 11.6-37.5 23-56.2 34.4-10.1 6.2-20.2 12.6-30.5 18.5-10.4 6-21.2 11.2-31.6 17.3-9.8 5.8-19.3 12-28.6 18.5-1.4 1-1.9 4-2 6.2-.4 10.3 7.3 16 12.7 22.5 3.7-1.2 7.1-1.8 9.9-3.2 15.8-7.9 31.5-16.1 47.2-24.2 6.4-3.3 12.9-6.3 19.1-10 12.7-7.6 25.1-15.7 37.8-23.5 9.4-5.8 19.1-11 28.3-17 13-8.5 25.6-17.5 38.4-26.2 10.1-6.9 20.2-13.8 30.5-20.4 3.6-2.3 7.8-3.7 13.1-6.2.7 13.3 1.4 25.1 1.9 36.9.1 1.1-1.1 2.8-2.2 3.3-6.5 3.5-13.3 6.5-19.7 10.2-11.2 6.5-22.5 13-33.2 20.4-7.4 5.2-13.8 11.9-20.6 17.8a58.7 58.7 0 0 0-16.1 25.3c-5.5 15.3 4.9 31.6 15 37.9 1.6 1 2.9 2.3 4.3 3.5 0 0 11.3 5 21.6 3.5l1.9-.3.5-.1a158.4 158.4 0 0 0 16.1-3.2c1.5-.4 14.1-4.4 20.8-10l1.6-1.5c6.9-6.7 12.5-14.2 17.5-22.5a138.7 138.7 0 0 0 14.5-40.9 5.2 5.2 0 0 1 2.4-2.9c7.2-4.4 14.2-9.2 21.8-12.9 9.7-4.6 17.1-12.7 27.5-16.2 8.4-2.8 16.2-7.7 24.3-11.6l1 1.6-5.8 8.2-6.8 10.7-8.2 12.8c-4.6 6.9-6.6 14.9-9.6 22.5a34 34 0 0 0 6 37c3.9 4.3 8.4 8.1 13 11.6 2.1 1.6 5.4 3 7.7 2.6a47.3 47.3 0 0 0 16.3-5.3c8.1-5.1 15.9-10.9 22.9-17.5 9.1-8.5 17.6-17.7 25.8-27 8.3-9.5 15.8-19.6 23.7-29.4l6.9-9 11.5-14.5 1.5.7c-.3 3.9-.8 7.8-.8 11.6.1 9.3-.4 18.7 1.1 27.8a65.7 65.7 0 0 0 23.4 39.5c6 5.2 12.7 6.2 19.6 5.9 10.3-.5 18.1-7.4 25.2-13.5 11.4-9.8 21.4-21.3 31.7-32.4 6.3-6.7 12-14 18-21l13.7-15.9c.2 2.5-.9 4.4-1.3 6.3-1.1 6-1.4 12.1-3 18a75 75 0 0 0 25.3 71 30.2 30.2 0 0 0 28 7.4 71.1 71.1 0 0 0 27.9-14.2c5.8-4.4 11.2-9.3 16.7-14.1 6-5.3 11.8-10.8 18.1-16.6.1 2.1.1 3.6.3 5.1 1.1 8.2 1.8 16.4 3.6 24.5 3 13 13 21.3 21.2 30.9 3.9 4.6 8.9 5.8 13.7 6.2a39 39 0 0 0 24.5-7.6c8.8-5.8 16.9-12.2 23.6-20.4 5.8-7 12.9-13.1 17.7-20.7 6.9-10.9 12.1-22.8 18.2-34.2a9.2 9.2 0 0 1 3.9-3.9c4.9-2.4 10.1-4.2 14.9-6.7 9-4.6 18-9.3 26.7-14.4 9.9-5.8 19.7-11.7 29-18.4 9-6.4 17.1-14.2 26.2-20.5 5.9-4.1 10.9-7.8 13.6-15 3.3-7 3.7-10.2-1.9-15.9zm-698.6 108.8a87 87 0 0 1-30.3 32.3 33.7 33.7 0 0 1-21.4 3.5c.8-2.6.9-5.4 2.3-7 7.7-8.6 15.1-17.7 23.9-25.2 8.4-7.1 18.3-12.4 27.6-18.5l3.5-2.4 1.4.8c-2.2 5.5-3.9 11.4-7 16.5zm191.2-74.4c-6.6 5.6-11.5 12.5-16.6 19.4-3.9 5.2-9 9.7-13.5 14.5-8.2 8.8-16.3 17.6-24.6 26.2-6.8 7-14 13.8-21 20.7l-1.5-1.4c9-17.3 17.4-34.9 31.9-48.9 13.9-13.4 25.6-29.8 47.1-32.9-.7.8-1.1 1.8-1.8 2.4zm354.4 74.4c-3.3 4.3-6.8 8.5-10.7 12.3-5.8 5.6-11.6 11.6-18.2 16-5.8 3.9-12.7 6-19.3 8.5-3.4 1.3-5.7-.6-6.1-3.8-.8-7.5-1.5-15-1.7-22.5a86.1 86.1 0 0 1 10.1-38.4c1.3-2.9 1.7-6.2 3.4-8.8 2.5-3.8 5.8-7.2 8.9-10.8 6.3 7.7 11.3 15.6 18 21.4 6.7 5.8 15.2 9.5 23.3 14.4-2.2 3.3-4.7 7.7-7.7 11.7zm22.2-57.2c-.1 1.6-.6 3.3-.3 4.9.9 5.2-2.8 6.9-6.3 6.9-8.3 0-16.7.4-24.4-4-6.7-3.8-7.7-13-2.7-18.8 7.2-8.3 15.8-9.1 25.4-6.6 2.1.6 4.7 2.4 5.5 4.3 1.7 4.1 2.5 8.7 3.6 13l-.8.3z"/></g></svg>