<?xml version="1.0" encoding="utf-8"?>
<!-- Generator: Adobe Illustrator 25.3.1, SVG Export Plug-In . SVG Version: 6.00 Build 0)  -->
<svg version="1.1" id="Layer_1" xmlns="http://www.w3.org/2000/svg" xmlns:xlink="http://www.w3.org/1999/xlink" x="0px" y="0px"
	 viewBox="0 0 2317.5 276.6" style="enable-background:new 0 0 2317.5 276.6;" xml:space="preserve">
<style type="text/css">
	.st0{fill:none;}
	.st1{fill:#FFFFFF;}
</style>
<g id="Layer_1_1_">
	<path class="st0" d="M293.5,70.3c-2.9,6.2-5.1,12.4-8.5,17.6c-4.8,7.3-10.8,13.7-17.9,18.8c-7.4,5.3-13.5,12.4-20.5,18.3
		c-2.3,1.9-5.7,2.4-8.4,3.9c-1.6,0.9-2.9,2.5-4.4,3.8c-1.2,1.1-2.4,2.7-3.8,3c-10,1.7-17.2,8.5-25.5,13.3l-7.7,4l-1.2-0.9
		c1.6-3.5,2.8-7.2,4.8-10.4c7.1-11.3,13.9-22.7,23.7-32.1c5.8-5.6,10.1-12.7,16-18.1c11.4-10,24.8-17.4,39.2-22
		C283.4,68.3,288.2,69.9,293.5,70.3L293.5,70.3z M2182.4,142.4c-0.1,1.6-0.6,3.3-0.3,4.9c0.9,5.2-2.8,6.9-6.3,6.9
		c-8.3,0-16.7,0.4-24.4-4c-6.7-3.8-7.7-13-2.7-18.8c7.2-8.3,15.8-9.1,25.4-6.6c2.1,0.6,4.7,2.4,5.5,4.3c1.7,4.1,2.5,8.7,3.6,13
		L2182.4,142.4L2182.4,142.4z M2167.9,187.9c-2.2,3.3-4.7,7.8-7.7,11.8c-3.3,4.3-6.8,8.5-10.7,12.3c-5.8,5.6-11.6,11.6-18.2,16
		c-5.8,3.9-12.7,6-19.3,8.5c-3.4,1.3-5.7-0.6-6.1-3.8c-0.8-7.5-1.5-15-1.7-22.5c0.3-13.4,3.8-26.6,10.1-38.4
		c1.3-2.9,1.7-6.2,3.4-8.8c2.5-3.8,5.8-7.2,8.9-10.8c6.3,7.7,11.3,15.6,18,21.4C2151.3,179.3,2159.7,183,2167.9,187.9z"/>
	<path class="st0" d="M293.5,70.3c-2.9,6.2-5.1,12.4-8.5,17.6c-4.8,7.3-10.8,13.7-17.9,18.8c-7.4,5.3-13.5,12.4-20.5,18.3
		c-2.3,1.9-5.7,2.4-8.4,3.9c-1.6,0.9-2.9,2.5-4.4,3.8c-1.2,1.1-2.4,2.7-3.8,3c-10,1.7-17.2,8.5-25.5,13.3l-7.7,4l-1.2-0.9
		c1.6-3.5,2.8-7.2,4.8-10.4c7.1-11.3,13.9-22.7,23.7-32.1c5.8-5.6,10.1-12.7,16-18.1c11.4-10,24.8-17.4,39.2-22
		C283.4,68.3,288.2,69.9,293.5,70.3L293.5,70.3z M2167.9,187.9c-2.2,3.3-4.7,7.8-7.7,11.8c-3.3,4.3-6.8,8.5-10.7,12.3
		c-5.8,5.6-11.6,11.6-18.2,16c-5.8,3.9-12.7,6-19.3,8.5c-3.4,1.3-5.7-0.6-6.1-3.8c-0.8-7.5-1.5-15-1.7-22.5
		c0.3-13.4,3.8-26.6,10.1-38.4c1.3-2.9,1.7-6.2,3.4-8.8c2.5-3.8,5.8-7.2,8.9-10.8c6.3,7.7,11.3,15.6,18,21.4
		C2151.3,179.3,2159.7,183,2167.9,187.9z M2182.4,142.4c-0.1,1.6-0.6,3.3-0.3,4.9c0.9,5.2-2.8,6.9-6.3,6.9c-8.3,0-16.7,0.4-24.4-4
		c-6.7-3.8-7.7-13-2.7-18.8c7.2-8.3,15.8-9.1,25.4-6.6c2.1,0.6,4.7,2.4,5.5,4.3c1.7,4.1,2.5,8.7,3.6,13L2182.4,142.4L2182.4,142.4z"
		/>
	<path class="st0" d="M293.5,70.3c-2.9,6.2-5.1,12.4-8.5,17.6c-4.8,7.3-10.8,13.7-17.9,18.8c-7.4,5.3-13.5,12.4-20.5,18.3
		c-2.3,1.9-5.7,2.4-8.4,3.9c-1.6,0.9-2.9,2.5-4.4,3.8c-1.2,1.1-2.4,2.7-3.8,3c-10,1.7-17.2,8.5-25.5,13.3l-7.7,4l-1.2-0.9
		c1.6-3.5,2.8-7.2,4.8-10.4c7.1-11.3,13.9-22.7,23.7-32.1c5.8-5.6,10.1-12.7,16-18.1c11.4-10,24.8-17.4,39.2-22
		C283.4,68.3,288.2,69.9,293.5,70.3L293.5,70.3z M2182.4,142.4c-0.1,1.6-0.6,3.3-0.3,4.9c0.9,5.2-2.8,6.9-6.3,6.9
		c-8.3,0-16.7,0.4-24.4-4c-6.7-3.8-7.7-13-2.7-18.8c7.2-8.3,15.8-9.1,25.4-6.6c2.1,0.6,4.7,2.4,5.5,4.3c1.7,4.1,2.5,8.7,3.6,13
		L2182.4,142.4L2182.4,142.4z M2167.9,187.9c-2.2,3.3-4.7,7.8-7.7,11.8c-3.3,4.3-6.8,8.5-10.7,12.3c-5.8,5.6-11.6,11.6-18.2,16
		c-5.8,3.9-12.7,6-19.3,8.5c-3.4,1.3-5.7-0.6-6.1-3.8c-0.8-7.5-1.5-15-1.7-22.5c0.3-13.4,3.8-26.6,10.1-38.4
		c1.3-2.9,1.7-6.2,3.4-8.8c2.5-3.8,5.8-7.2,8.9-10.8c6.3,7.7,11.3,15.6,18,21.4C2151.3,179.3,2159.7,183,2167.9,187.9z"/>
	<path class="st0" d="M293.5,70.3c-2.9,6.2-5.1,12.4-8.5,17.6c-4.8,7.3-10.8,13.7-17.9,18.8c-7.4,5.3-13.5,12.4-20.5,18.3
		c-2.3,1.9-5.7,2.4-8.4,3.9c-1.6,0.9-2.9,2.5-4.4,3.8c-1.2,1.1-2.4,2.7-3.8,3c-10,1.7-17.2,8.5-25.5,13.3l-7.7,4l-1.2-0.9
		c1.6-3.5,2.8-7.2,4.8-10.4c7.1-11.3,13.9-22.7,23.7-32.1c5.8-5.6,10.1-12.7,16-18.1c11.4-10,24.8-17.4,39.2-22
		C283.4,68.3,288.2,69.9,293.5,70.3L293.5,70.3z M2182.4,142.4c-0.1,1.6-0.6,3.3-0.3,4.9c0.9,5.2-2.8,6.9-6.3,6.9
		c-8.3,0-16.7,0.4-24.4-4c-6.7-3.8-7.7-13-2.7-18.8c7.2-8.3,15.8-9.1,25.4-6.6c2.1,0.6,4.7,2.4,5.5,4.3c1.7,4.1,2.5,8.7,3.6,13
		L2182.4,142.4L2182.4,142.4z M2167.9,187.9c-2.2,3.3-4.7,7.8-7.7,11.8c-3.3,4.3-6.8,8.5-10.7,12.3c-5.8,5.6-11.6,11.6-18.2,16
		c-5.8,3.9-12.7,6-19.3,8.5c-3.4,1.3-5.7-0.6-6.1-3.8c-0.8-7.5-1.5-15-1.7-22.5c0.3-13.4,3.8-26.6,10.1-38.4
		c1.3-2.9,1.7-6.2,3.4-8.8c2.5-3.8,5.8-7.2,8.9-10.8c6.3,7.7,11.3,15.6,18,21.4C2151.3,179.3,2159.7,183,2167.9,187.9z"/>
	<path class="st1" d="M1283.5,201c-3.8-4.8-7.9-9.3-12.3-13.4c-1-1-4.1-1-5.6-0.2c-6.5,3.2-12.7,7-19,10.4l-36.3,19.7
		c-0.7,0.4-1.6,0.3-2.4,0.5c-3.8,0.8-7.5,1.9-11.3,2.5c-3.1,0.5-6.2,0.6-9.3,0.7c-5.2,0.2-10.5-0.2-15.5,0.7
		c-4.5,0.9-6.8,0.6-6.8-3.9c0-7.5-0.1-15.3,1.7-22.6c3.8-16.2,8.5-32.2,13.4-48.1c2.2-7.2,6.2-13.5,6.8-21.6
		c0.4-6.6-1.8-10.2-6.2-13.7c-1-0.8-2.7-1.7-2.8-2.6c-0.6-7.7-6.5-11.2-11.7-15.2c-7.7-5.8-16-11-26.1-9.1
		c-5.8,1.1-11.9,1.6-17.6,2.7s-10.1,4.6-15.6,5.9c-5.6,1.3-10.7,5.7-15.5,9.3c-4.9,3.6-9.3,8-13.9,12c-10.2,9.1-20.7,18-30.6,27.5
		c-5.9,5.7-10.7,12.6-16.3,18.6c-5.6,6-11.7,11.5-17.5,17.4c-1.3,1.4-2.1,3.3-3.3,4.8c-2.8,3.5-5.4,7.3-8.7,10.1
		c-4.6,3.9-9.9,7.1-14.8,10.7c-2.2,1.6-4.2,3.5-7.4,6.1c1-9.5,1.8-17.6,2.8-25.7c2.1-16.5,4.5-33,6.4-49.6
		c0.7-6.1,0.9-12.5,0.1-18.6c-1.6-12.4-17.8-20-26.9-19.6c-3.4,0.4-6.7,1.8-9.3,4c-5.7,5-10.8,10.7-16,16.3
		c-5.9,6.3-12,12.5-17.4,19.3c-10.1,12.7-19.8,25.8-30,39.2c0.2-1.5,0.2-2.7,0.5-3.8c2.4-11.8,5.1-23.6,7.3-35.4
		c1.4-7.7,2.6-15.5,3.1-23.3c0.3-5.3,0-11-1.4-16.1c-2.9-10.7-12.3-14.3-21.6-17.1c-2.5-0.8-6.2-0.2-8.3,1.3
		c-6.5,4.7-12.4,10.2-18.5,15.4c-0.4,0.3-0.6,0.7-0.9,1.1c-6.7,9-13.5,17.9-20,27c-5.9,8.3-11.5,16.8-17.3,25.1l-9.4,13.3
		c1.5-8.5,2.3-16.1,4.1-23.4c3.7-15,4.5-30.1,4.1-45.4c-0.1-5.3-0.1-11-1.9-15.8C803.7,66.2,792.3,62.3,781,59
		c-2.5-0.7-6.5,0.3-8.7,2c-12.2,8.2-23.2,18.2-32.4,29.7c-9.2,12.5-19.1,24.6-28.7,36.9l-26.3,33.7c-4,5.2-7.3,11-11.5,16
		c-5,6-10.9,11.2-16,17.2c-4.7,6.2-10.6,11.3-17.3,15.2c0.5-2.5,1.5-4.5,1.3-6.4c-1.4-15.5,5-29.5,8.2-44.2c1.6-7.1,3.8-14,5.8-21
		l4.5-16.1c0.4-1.6,0.7-3.2,0.7-4.9c-0.2-4.4-1.4-9-0.7-13.2c0.9-6-1.9-9.9-6.4-12.3c-5.6-3.1-11.8-5.4-17.9-7.4
		c-1.8-0.6-4.9,0-6.3,1.2c-7.7,6.6-15.2,13.5-22.4,20.7c-6.7,6.8-12.9,14.2-19.2,21.5c-8.6,10-17,20.1-25.4,30.3
		c-5.3,6.4-10.3,13.1-15.5,19.7c-0.7-1-1-2.3-0.8-3.5c1.5-9.3,3.7-18.5,4.5-27.9s0.2-18.9,0.1-28.4c-0.3-19.9-15.3-29.5-33.2-31.6
		c-2.5-0.3-5.4,0.2-7.5,1.4c-7.2,3.9-14.3,8-21.2,12.4c-2,1.3-3.4,3.5-5.1,5.4l-11.5,12.4c-4.8,5.2-9.7,10.3-14.3,15.7
		c-5.5,6.4-10.6,13.1-15.8,19.7l-1.4-0.9c-0.1-0.9-0.5-2-0.1-2.7c2.6-6.2,5.1-12.5,8.1-18.5c4.3-8.4,8.6-16.1,8.6-26.5
		c0-8.7-3.8-11.9-10.1-14.9l-1.8-0.8c-14-5.9-13-4.7-22.1,5.4c-3.4,3.8-7,7.5-10.6,11.2c-2.7,2.7-5.8,5-8.4,7.8s-4.2,6.8-7.3,8.6
		c-5.2,3-9.7,6.5-13.3,11.3c-1.9,2.4-4.7,4.2-7.2,6.1c-2.3,1.7-5.1,2.8-7.2,4.7c-9.1,7.9-17.8,16.3-27.1,23.9
		c-6.8,5.6-14.4,10.3-21.8,15.2c-11.7,7.8-22.8,16.7-35.4,22.5c-7.3,3.4-14.5,8.5-23.2,9.1c-2.5,0.2-4.8,3-7.4,3.8
		c-4.2,1.3-8.6,1.8-12.9,2.8c-4.8,1.2-9.5,3.2-14.4,3.6c-6,0.4-12.2-0.7-18.3-0.7c-11.3-0.1-21.1-8.1-23.3-19.2
		c-0.6-3.5,1.7-6,5.2-5.6c0.9,0.1,2,0.3,2.8-0.1l17.4-8.8c6.8-3.5,13.8-6.7,20.3-10.6c5.7-3.4,12.2-5.7,16.1-11.7
		c1.1-1.7,3.7-2.6,5.6-3.7c2.4-1.4,5-2.5,7.2-4.1c3.8-2.8,6.9-7.2,11.1-8.5c7.8-2.4,12.5-8.5,17.9-13.4c7.7-7,13.9-15.5,20.8-23.3
		c9.2-10.4,11.8-23.3,13.6-36.4c1.5-10.3-2.5-19.1-9.5-26.8c-7.2-7.9-14.3-15.8-25.5-17.9c-3.8-0.7-7.8-2.1-11.6-1.8
		c-6.5,0.5-13,1.5-19.2,3.6c-5.3,1.8-9.8,5.9-15,7.9c-9.9,3.8-16.6,11.5-24.2,18.2c-5,4.4-10.5,8.2-15.1,12.9
		c-3.9,4-6.9,8.9-10.3,13.4l-5.3,6.5c-0.9,1.1-2.2,2-2.9,3.2c-2.4,4.2-4.9,8.4-7,12.8c-6,12.8-11.9,25.6-17.7,38.4
		c-0.5,1.2-0.7,2.6-0.9,3.9L156,172c-0.2,0.8-0.7,1.5-1.4,1.9c-5,2.5-9.8,5.3-15,7.2c-9.9,3.5-20.7,5.2-29.7,10.1
		c-9.2,5.1-19.6,4-28.7,8.4c-5,2.4-10.7,3.3-16.2,4.6c-7,1.6-14.1,3-21.2,4.4c-1.1,0.2-2.5,0-3.4,0.5c-9,4.8-18.9,4.9-28.6,6.3
		c-8.5,1.2-12.8,7.1-11.6,15.4c1.3,8.6,7.7,12.3,13.4,16.8c1.9,1.5,4.5,3.2,6.6,3c6.7-0.6,13.4-2,20.1-3.1c4.2-0.7,8.3-1.6,12.5-2.2
		c2.8-0.4,5.7-0.2,8.5-0.9c5.2-1.3,10.3-3.2,15.5-4.5c4.5-1.1,9.3,0.3,13.5-3.2c2.4-1.9,6.5-2.8,9.6-2.5c4,0.4,7-0.7,10.2-2.8
		c2.6-1.7,5.7-3.8,8.5-3.8c5.7,0.1,10-3,14.8-5c1.2-0.5,2.6-0.4,3.8-0.8c2.5-0.8,5-1.5,7.4-2.6c4.6-2.2,9.1-4.7,13.8-6.7
		c1-0.4,3.4,0.5,3.8,1.4c4.8,10.3,11.8,19.4,20.5,26.7c4.4,4.3,9.3,7.9,14.7,10.8c5.2,2.4,9.1,9,16.3,6.4c0.5-0.2,1.4,0.9,2.2,1
		c4.6,1.1,9.2,2.7,13.9,2.9c4.2,0.1,8.4-1.4,12.6-2.1l21.5-2.9c5.1-0.7,8.2-5.8,14.5-5.2c4.2,0.4,8.1-4.3,13.5-5.5
		c6.8-1.5,13.6-6.1,20.1-9.7c10.9-5.9,20.7-13.9,31.6-20c13.4-7.1,24.8-17.5,33-30.3c3.5-5.7,9.4-9.9,14.2-14.8l1.8,1.2l-2.5,5
		c-1.1,2.2-2.2,4.3-3.1,6.6l-4.2,9.9c-1.1,2.4-2.5,4.6-3.4,7c-3.2,8-6.3,16.1-9.3,24.1c-0.8,2.2-1.5,4.4-2.1,6.6
		c-0.8,3.2-1,6.7-2.4,9.6c-5.6,12.2,1.5,21.8,8.8,27.3c4.8,3.6,10.9,5.5,16.7,7.5c3.5,1.2,7.4,0.7,10.1-2.8
		c3.5-4.4,7.3-8.6,10.6-13.1c8.1-11.1,16.1-22.4,24.1-33.6c5.3-7.4,10.3-15,15.6-22.4c7.5-10.5,15-21.1,23-31.3
		c5.9-7.6,12.4-14.7,18.7-22c2.8-3.2,5.3-6.7,8.4-9.5c4.9-4.5,10.3-8.5,15.4-12.7l1.5,0.6l-4.3,36.2c-1.2,9.5-3.2,18.9-4,28.4
		c-0.7,8.4-0.2,16.8-0.5,25.3c-0.3,9.2,5.1,15.1,11.8,20c3.7,2.7,8.2,4.4,12.5,6c2.3,0.9,6.1,1.8,7.4,0.6c6-5.1,11.4-10.8,16.3-16.9
		c6.4-8.3,11.5-17.7,17.8-26.1c10.8-14.5,22-28.6,33.1-42.8c1.4-1.8,3-3.5,4.6-5.2l1.7,0.7l-3.5,17.5c-1.1,6-2.3,12-3,18
		c-0.3,2.9,0.7,5.9,0.5,8.9c-0.8,8.2,1.5,16.5,6.5,23.1c7.4,9.3,17.4,16.1,28.8,19.5c3.4,1.3,8.3,0.8,11.8-0.6
		c5.3-2.2,10.1-5.2,14.4-9c8.9-7.7,17.8-15.5,25.6-24.3c3.6-4.2,6.2-9.3,10.4-13.4c7-6.8,11.1-16.1,17.7-23.6
		c11.8-13.5,21.7-28.5,32.7-42.7c6.8-8.7,14.3-16.8,21.5-25.2c0.3-0.3,0.9-0.2,1.7-0.5c-0.9,6.6-1.1,13.1-2.8,19.2
		c-2.6,9.5-2.3,19.5-6.8,28.7c-2.8,5.8-0.5,12.7-2.9,19.1c-2.8,7.5-3.2,15.9-4.6,24c-1,6.2-1.7,12.5-2.7,18.7
		c-0.3,1.8-1.1,3.4-1.6,5.2c-1.4,5.1-2.9,10.1-4.2,15.2c-1,3.7-1.3,7.7-2.8,11.2c-1.6,3.7-1.8,6.7,0.6,9.9l0.1,0.2
		c1.3,1.6,2,3.6,3.3,6c0,0,2.7,3.5,5.4,4s12.8,1.4,15.5,0c3.5-1.8,6.5-4.3,8.9-7.4l0.1-0.2l3.8-6.7c21.9-38,45.5-73.9,71.1-108.4
		l1.2,0.6c-1.2,5.8-2.6,11.5-3.5,17.3c-1.2,7.5-2.1,15-3.2,22.4c-0.8,5.5-2,11-2.6,16.5c-1.2,9.9-3.2,19.8-2.7,29.6
		c0.4,6.5,4.9,12.5,11.7,15.5l8.6,4.3c0.3,0.2,3.8,2.4,6.5,2.1c2.8-0.4,5.3-1.8,5.3-1.8l12.1-17.6c4.6-6.4,9.5-12.7,14.2-19
		c1.3-1.7,2.9-3.3,3.9-5.2c8-16.4,20.8-29.3,31.4-43.8c2.8-3.8,5.9-7.5,9-11.1c0.6-0.7,1.5-1,2.9-1.8c-0.8,4.5-1.7,8.3-2.2,12.2
		c-1.4,11.4-2.7,22.9-3.8,34.3c-1.3,12.4,2.5,24.7,10.6,34.2c1.8,2.2,4.6,3.7,7.1,5.3c3.1,2,6.4,3.9,9.6,5.8c0,0,12.2,0.8,23-3
		l8.5-4.5c0.6-0.3,1.3-0.6,1.7-1c4.1-4.6,8-9.5,12.4-13.8c4-3.8,8.9-6.9,13.2-10.4c1.6-1.3,2.9-3.1,4.3-4.7c2.1-2.3,4.2-4.7,7-6.7
		c-3.7,11.8-5,23.1,3.2,34.3c0,0,4.6,8.1,16,10c10.1,1.6,20.4,0.7,30-2.6l21.2-11.6l16.7-17.9l7.4,19.7c0,0,3.6,11,7.5,13.2
		s11.7,7.1,15.4,7.1c3.7,0,15.9,2.5,28,0.7c7.9-1.1,16.7-1.8,21.9-2.6c7.7-1.5,15.3-3.4,22.7-5.8c5.4-2.6,10.9-4.9,16.2-7.8
		c3.5-2,6.4-5,9.9-7.1c3.1-2,6.8-3.1,9.9-5.1c4.6-3,10.8-4.2,10.7-12.2C1283.2,207,1285.6,203.7,1283.5,201L1283.5,201z
		 M200.3,141.6c7.1-11.3,13.9-22.7,23.7-32.1c5.8-5.5,10.1-12.7,16-18.1c11.4-10,24.8-17.5,39.2-22.1c4.1-1.1,8.9,0.4,14.2,0.9
		c-2.9,6.2-5.1,12.4-8.5,17.6c-4.8,7.3-10.8,13.7-17.9,18.8c-7.4,5.3-13.5,12.4-20.5,18.3c-2.3,1.9-5.7,2.4-8.4,3.9
		c-1.6,0.9-2.9,2.5-4.4,3.8c-1.2,1.1-2.4,2.7-3.8,3c-10,1.7-17.2,8.5-25.5,13.3l-7.7,4l-1.2-0.9
		C197.1,148.5,198.3,144.8,200.3,141.6L200.3,141.6z M1137.1,142.4l-6.2,9.5c-4.8,7.1-9.4,14.3-14.7,21.1
		c-6.6,8.7-13.7,17.1-21.1,25.1c-5.2,5.6-11.6,10.1-17.4,15.1l-1-0.8c5.7-13,10.6-26.4,17.3-38.9c4.6-8.5,12.1-15.4,17.5-23.6
		c5.9-9,14-15.4,22.5-21.5c5.2-3.7,11.2-6.2,16.9-9.3l1.4,1.4l-5.3,7.5L1137.1,142.4L1137.1,142.4z"/>
	<path class="st0" d="M2167.9,187.9c-2.2,3.3-4.7,7.8-7.7,11.8c-3.3,4.3-6.8,8.5-10.7,12.3c-5.8,5.6-11.6,11.6-18.2,16
		c-5.8,3.9-12.7,6-19.3,8.5c-3.4,1.3-5.7-0.6-6.1-3.8c-0.8-7.5-1.5-15-1.7-22.5c0.3-13.4,3.8-26.6,10.1-38.4
		c1.3-2.9,1.7-6.2,3.4-8.8c2.5-3.8,5.8-7.2,8.9-10.8c6.3,7.7,11.3,15.6,18,21.4C2151.3,179.3,2159.7,183,2167.9,187.9z
		 M2182.4,142.4c-0.1,1.6-0.6,3.3-0.3,4.9c0.9,5.2-2.8,6.9-6.3,6.9c-8.3,0-16.7,0.4-24.4-4c-6.7-3.8-7.7-13-2.7-18.8
		c7.2-8.3,15.8-9.1,25.4-6.6c2.1,0.6,4.7,2.4,5.5,4.3c1.7,4.1,2.5,8.7,3.6,13L2182.4,142.4L2182.4,142.4z"/>
	<path class="st1" d="M2313.2,90.8c-7-7.1-10.3-8-17.3-3.8c-5.3,3.2-10.1,7.2-15.2,10.8l-4.9,3.5l-32.5,22.8c-2.2,1.5-4.6,2.6-6.9,4
		c-7.9,4.8-15.7,9.8-23.7,14.5c-2,1.2-4.5,1.5-6.8,2.3l-1.2-3.8c-0.2-0.8-0.1-1.7-0.2-2.5c-2.8-19.7-15.4-36.6-33.5-44.9
		c-7.8-3.8-17-4.4-25.6-6.4c-0.6-0.1-1.4,0.7-2.2,1c-8.5,3-14.6,9.2-21.2,15c-8.6,7.5-15.6,16.7-20.6,26.9c-0.7,1.4-1.8,2.7-3,3.8
		c-4,4.1-8.3,8-12.2,12.2c-4.5,4.8-8.6,9.9-13.1,14.7c-3.6,3.8-7.5,7.4-11.3,11c-7,6.7-14.1,13.4-21.2,19.9
		c-2.7,2.4-5.8,4.4-8.4,6.8c-9.4,8.9-21.2,14.9-33.9,17.2c-3.5,0.6-7.4-0.8-8.8-5c-3.5-9.8-4.5-20.4-2.7-30.7
		c1.8-9.4,4.9-18.5,7.6-27.7c1.8-6.2,3.6-12.4,6.1-18.3c5-11.3,10.4-22.5,16.1-33.6c1.8-3.5,4.6-8.5,7.6-9.1
		c8.1-1.6,16.6-1.3,25-1.5c3.4-0.1,7,1.2,10.4,1c9.8-0.7,19.6-2,29.3-2.9c2.5-0.2,5.1,0.8,7.6,0.7c8.8-0.5,17.5-1.1,26.2-1.9
		c1.6-0.3,3.1-1,4.3-2.1c3.5-3,5.6-14.4,2.7-17.9c-4.5-5.4-9.8-10.3-14.8-15.2c-0.9-0.8-2-1.1-3.2-1c-7.5,1.5-15,2.3-22.8,1.9
		c-8.6-0.4-16.9,3.3-25.8,1.9c-5.2-0.8-10.6-0.1-16.9-0.1c1.1-2.3,1.7-3.3,2.1-4.4c3.7-8.8,7.7-17.6,10.8-26.6
		c0.8-3.3,0.3-6.8-1.6-9.6c-3.9-4.9-8.8-9-13.7-12.9c-1.3-1-4.8-1.1-6.1-0.1c-4,3-7.7,6.5-11.2,10.1c-5.2,5.5-10.7,11-15,17.2
		c-5.1,7.3-7.3,16.5-14.9,22.3c-1.1,1-2,2.2-2.6,3.6c-1.7,4.6-5.7,4.4-9.4,4.9c-1.3,0.2-2.6-0.2-3.9-0.1c-11.6,1-23.1,2.2-34.7,3.1
		c-4.8,0.4-9.8,0-14.6,0.4c-10.5,0.8-20.9,1.9-31.4,2.8c-5.6,0.5-9.9,3.7-9,7.8c1.2,5.2,3,10.5,5.6,15.1c2.1,3.8,5.8,6.8,8.6,10.3
		c2.3,3,4.7,3,8.3,2.2c5.9-1.3,12.1-1.6,18.2-2.2c10-1,20-1.6,30-1.9c-1.5,3-2.6,5.5-3.9,7.7c-1.3,2.1-2.8,4.1-4.4,6
		c-0.8,1-2,1.8-2.8,2.8l-13.5,15.5c-5.8,6.5-11.5,12.9-17.4,19.2c-7.4,8-14.7,16.1-22.4,23.8c-5.5,5.5-11.8,10.1-17.1,15.7
		c-5,5.2-11.5,6.3-17.9,9.5c-0.6-2.5-1.5-4.3-1.4-6c0.6-19.7,1.5-39.5,1.9-59.2c0.1-7-0.1-14.4-2.1-21c-2.3-7.8-9.4-12.2-16.3-16
		c-3.3-1.8-6.5-4.3-10.5-1.1c-0.8,0.6-2.8-0.4-4.2-0.7c-6.9-1.4-13.7-3.3-20.7-4c-5.7-0.5-11.4,0.7-17.2,0.7c-6.8,0-13.6-1-20.4-0.5
		c-6.4,0.4-12.8,1.8-19,3.4c-7.6,2-15.1,4.8-22.5,7.4c-7.1,2.5-14.5,4.5-21.2,7.8c-9.3,4.6-18,10.3-27.2,15.2
		c-6,3.2-12.4,5.9-18.7,8.8l-5.1,2.4l-0.9-3.8l-4.4-27.8c-1.6-11.9-8.3-22.5-18.2-29.2c-9.6-6.5-17.5-9-26.1-2.6
		c-5.4,4-11.7,6.7-17.3,10.4c-7.2,4.8-14,10.1-21.2,14.9c-4,2.6-8.6,4.3-12.6,6.8c-5.6,3.5-10.8,7.7-16.5,11.2
		c-18.7,11.6-37.5,23-56.2,34.4c-10.1,6.2-20.2,12.6-30.5,18.5c-10.4,6-21.2,11.2-31.6,17.3c-9.8,5.8-19.3,12-28.6,18.5
		c-1.4,1-1.9,4-2,6.2c-0.4,10.3,7.3,16,12.7,22.5c3.7-1.2,7.1-1.8,9.9-3.2c15.8-7.9,31.5-16.1,47.2-24.2c6.4-3.3,12.9-6.3,19.1-10
		c12.7-7.6,25.1-15.7,37.8-23.5c9.4-5.8,19.1-11,28.3-17c13-8.5,25.6-17.5,38.4-26.2c10.1-6.9,20.2-13.8,30.5-20.4
		c3.6-2.3,7.8-3.7,13.1-6.2c0.7,13.3,1.4,25.1,1.9,36.9c0.1,1.1-1.1,2.8-2.2,3.3c-6.5,3.5-13.3,6.5-19.7,10.2
		c-11.2,6.5-22.5,13-33.2,20.4c-7.4,5.2-13.8,11.9-20.6,17.8c-7.5,6.9-13,15.6-16.1,25.3c-5.5,15.3,4.9,31.6,15,37.9
		c1.6,1,2.9,2.3,4.3,3.5c0,0,11.3,5,21.6,3.5l1.9-0.3l0.5-0.1c5.4-0.8,10.8-1.9,16.1-3.2c1.5-0.4,14.1-4.4,20.8-10l1.6-1.5
		c6.9-6.7,12.5-14.2,17.5-22.5c6.9-12.8,11.8-26.6,14.5-40.9c0.4-1.2,1.3-2.3,2.4-2.9c7.2-4.4,14.2-9.2,21.8-12.9
		c9.7-4.6,17.1-12.7,27.5-16.2c8.4-2.8,16.2-7.7,24.3-11.6l1,1.6l-5.8,8.2l-6.8,10.7l-8.2,12.8c-4.6,6.9-6.6,14.9-9.6,22.5
		c-5.6,12.4-3.2,27,6,37c3.9,4.3,8.4,8.1,13,11.6c2.1,1.6,5.4,3,7.7,2.6c5.7-0.8,11.2-2.6,16.3-5.3c8.1-5.1,15.9-10.9,22.9-17.5
		c9.1-8.5,17.6-17.7,25.8-27c8.3-9.5,15.8-19.6,23.7-29.4l6.9-9l11.5-14.5l1.5,0.7c-0.3,3.9-0.8,7.8-0.8,11.6
		c0.1,9.3-0.4,18.7,1.1,27.8c2.8,15.6,11.1,29.6,23.4,39.5c6,5.2,12.7,6.2,19.6,5.9c10.3-0.5,18.1-7.4,25.2-13.5
		c11.4-9.8,21.4-21.3,31.7-32.4c6.3-6.7,12-14,18-21l13.7-15.9c0.2,2.5-0.9,4.4-1.3,6.3c-1.1,6-1.4,12.1-3,18
		c-4.9,26.5,4.7,53.6,25.3,71c7.5,7.1,18,9.9,28,7.4c10.2-2.6,19.8-7.5,27.9-14.2c5.8-4.4,11.2-9.3,16.7-14.1
		c6-5.3,11.8-10.8,18.1-16.6c0.1,2.1,0.1,3.6,0.3,5.1c1.1,8.2,1.8,16.4,3.6,24.5c3,13,13,21.3,21.2,30.9c3.9,4.6,8.9,5.8,13.7,6.2
		c8.8,0.3,17.4-2.4,24.5-7.6c8.8-5.8,16.9-12.2,23.6-20.4c5.8-7,12.9-13.1,17.7-20.7c6.9-10.9,12.1-22.8,18.2-34.2
		c0.9-1.7,2.2-3,3.9-3.9c4.9-2.4,10.1-4.2,14.9-6.7c9-4.6,18-9.3,26.7-14.4c9.9-5.8,19.7-11.7,29-18.4c9-6.4,17.1-14.2,26.2-20.5
		c5.9-4.1,10.9-7.8,13.6-15C2318.4,99.7,2318.8,96.5,2313.2,90.8L2313.2,90.8z M1614.6,199.6c-7.1,13.2-17.6,24.3-30.3,32.3
		c-6.6,3.5-14.1,4.7-21.4,3.5c0.8-2.6,0.9-5.4,2.3-7c7.7-8.6,15.1-17.7,23.9-25.2c8.4-7.1,18.3-12.4,27.6-18.5l3.5-2.4l1.4,0.8
		C1619.4,188.6,1617.7,194.5,1614.6,199.6L1614.6,199.6z M1805.8,125.2c-6.6,5.6-11.5,12.5-16.6,19.4c-3.9,5.2-9,9.7-13.5,14.5
		c-8.2,8.8-16.3,17.6-24.6,26.2c-6.8,7-14,13.8-21,20.7l-1.5-1.4c9-17.3,17.4-34.9,31.9-48.9c13.9-13.4,25.6-29.8,47.1-32.9
		C1806.9,123.6,1806.5,124.6,1805.8,125.2z M2160.2,199.6c-3.3,4.3-6.8,8.5-10.7,12.3c-5.8,5.6-11.6,11.6-18.2,16
		c-5.8,3.9-12.7,6-19.3,8.5c-3.4,1.3-5.7-0.6-6.1-3.8c-0.8-7.5-1.5-15-1.7-22.5c0.3-13.4,3.8-26.6,10.1-38.4
		c1.3-2.9,1.7-6.2,3.4-8.8c2.5-3.8,5.8-7.2,8.9-10.8c6.3,7.7,11.3,15.6,18,21.4c6.7,5.8,15.2,9.5,23.3,14.4
		C2165.7,191.2,2163.2,195.6,2160.2,199.6L2160.2,199.6z M2182.4,142.4c-0.1,1.6-0.6,3.3-0.3,4.9c0.9,5.2-2.8,6.9-6.3,6.9
		c-8.3,0-16.7,0.4-24.4-4c-6.7-3.8-7.7-13-2.7-18.8c7.2-8.3,15.8-9.1,25.4-6.6c2.1,0.6,4.7,2.4,5.5,4.3c1.7,4.1,2.5,8.7,3.6,13
		L2182.4,142.4L2182.4,142.4z"/>
</g>
</svg>
